<?xml version="1.0" encoding="utf-8"?>
<!-- Generator: Adobe Illustrator 24.2.3, SVG Export Plug-In . SVG Version: 6.00 Build 0)  -->
<svg version="1.1" id="Layer_1" xmlns="http://www.w3.org/2000/svg" xmlns:xlink="http://www.w3.org/1999/xlink" x="0px" y="0px"
	 viewBox="0 0 108.5 341.1" style="enable-background:new 0 0 108.5 341.1;" xml:space="preserve">
<style type="text/css">
	.st0{fill:#DD3D31;}
	.st1{opacity:0.6;}
	.st2{fill:#FFFFFF;}
	.st3{fill:#263238;}
	.st4{opacity:0.3;}
	.st5{fill:#455A64;}
	.st6{fill:#FFBE9D;}
	.st7{fill:#EB996E;}
	.st8{fill:#FAFAFA;}
</style>
<g id="freepik--Character--inject-59">
	<path class="st0" d="M28,299.9l-13,19.5l-5.7,18.4c-0.4,1.3-1.8,2-3,1.6H6.2l0,0c-0.7-0.3-1.3-0.9-1.5-1.6
		c-1.2-4.9-5.5-22.5-4.4-23.9c1.2-1.6,12.3-21.4,12.3-21.4L28,299.9z"/>
	<g class="st1">
		<path class="st2" d="M6.1,339.2l-5-26.8l-0.5,0.8c-0.5,0.7-0.6,1.6-0.5,2.4c0.3,2.3,1.3,8.5,4.6,21.9C4.8,338.3,5.4,339,6.1,339.2
			L6.1,339.2z"/>
	</g>
	<g class="st1">
		<path class="st2" d="M9.1,308.6c0.3,0.7,0,1.5-0.7,1.8s-1.5,0-1.8-0.6c-0.3-0.7,0-1.6,0.7-1.9c0.7-0.2,1.5,0.2,1.8,0.9"/>
	</g>
	<path class="st3" d="M7,327.8c0.9-0.3,1.8-0.5,2.7-0.4c0.9,0.2,1.8,0.5,2.5,1c0,0-0.1-0.4-0.5-0.7c-0.6-0.5-1.3-0.7-2-0.8
		c-0.7-0.1-1.4,0-2.1,0.4C7.2,327.4,7,327.7,7,327.8z"/>
	<path class="st3" d="M6.8,331.3c0.8,0,1.5,0.1,2.3,0.3c1.2,0.3,2,1.1,2.1,1s-0.6-1.1-2-1.5C8.4,330.8,7.5,330.8,6.8,331.3z"/>
	<path class="st3" d="M6.6,322.7c1.2,0,2.4,0,3.6,0.2c1.1,0.3,2.3,0.7,3.4,1.2c-0.9-0.9-2-1.5-3.3-1.7C9,322,7.7,322.2,6.6,322.7z"
		/>
	<path class="st3" d="M10,316.5c0,0.2,1.4,0.4,2.8,1.2s2.4,1.9,2.5,1.8c-0.5-1-1.3-1.8-2.2-2.2C12.2,316.6,11.1,316.4,10,316.5z"/>
	<path class="st3" d="M13.7,310.6c1,0.3,2.1,0.7,3,1.2c0.8,0.7,1.6,1.4,2.2,2.3c0.1,0,0-0.4-0.3-1c-0.8-1.4-2.2-2.4-3.9-2.6
		C14,310.5,13.7,310.6,13.7,310.6z"/>
	<path class="st3" d="M17.3,310.8c0.2-0.2,0.4-0.5,0.5-0.7c0.4-0.7,0.6-1.5,0.6-2.4c0.1-0.6,0-1.2-0.3-1.7c-0.2-0.3-0.6-0.5-1-0.4
		s-0.7,0.4-0.9,0.7c-0.8,1.4-0.4,3.2,0.8,4.2c1.3,0.9,3,1.1,4.3,0.3c0.3-0.2,0.6-0.5,0.7-0.9c0-0.4-0.2-0.8-0.6-1
		c-0.6-0.2-1.2-0.2-1.7-0.1c-0.8,0.1-1.6,0.3-2.3,0.7c-0.5,0.3-0.8,0.5-0.7,0.5c1-0.4,2-0.7,3.1-0.8c0.5-0.1,1,0,1.5,0.2
		c0.2,0.1,0.3,0.3,0.3,0.5c-0.1,0.2-0.2,0.5-0.5,0.6c-1.2,0.6-2.7,0.5-3.8-0.3c-1.1-0.9-1.4-2.4-0.8-3.6c0.1-0.2,0.3-0.4,0.6-0.5
		c0.2-0.1,0.4,0,0.6,0.2c0.2,0.4,0.3,0.9,0.3,1.5C18,308.7,17.7,309.8,17.3,310.8z"/>
	<path class="st0" d="M40.3,311.1l1.5,19.5c0,0-19.4,6.6-19.5,10.3l38-0.1l-1-30.5L40.3,311.1z"/>
	<g class="st1">
		<path class="st2" d="M53.5,328.5c0.8,0.2,1.3,0.9,1.1,1.7c-0.2,0.8-0.9,1.3-1.7,1.1c-0.8-0.2-1.3-1-1.2-1.8
			C52,328.7,52.8,328.3,53.5,328.5"/>
	</g>
	<g class="st1">
		<path class="st2" d="M60.3,340.8l-0.1-3.1l-36.7,1.4c-0.8,0.4-1.3,1.2-1.4,2.1L60.3,340.8z"/>
	</g>
	<path class="st3" d="M41.2,330.4c0,0.2,0.9,0.2,1.9,0.8s1.4,1.3,1.6,1.2s-0.2-1.1-1.3-1.8S41.1,330.3,41.2,330.4z"/>
	<path class="st3" d="M37.2,332.2c0,0.2,0.8,0.5,1.4,1.2s0.9,1.6,1.1,1.6s0.3-1.1-0.6-2S37.2,332.1,37.2,332.2z"/>
	<path class="st3" d="M35.2,337.1c0.2,0,0.4-0.9-0.1-1.9s-1.4-1.4-1.5-1.2s0.5,0.7,0.9,1.5S35,337.1,35.2,337.1z"/>
	<path class="st3" d="M41.3,325.9c0.1,0.2,0.9-0.1,2-0.1s1.9,0.3,2,0.2s-0.7-0.8-2-0.8S41.2,325.8,41.3,325.9z"/>
	<g class="st4">
		<polygon points="40.6,314.9 40.9,318.4 59.5,317.5 59.4,314.4 		"/>
	</g>
	<path class="st3" d="M41.1,322c0.6,0.2,1.3,0.1,1.9-0.1c0.7-0.1,1.4-0.4,2-0.7c0.4-0.2,0.7-0.4,1.1-0.6c0.2-0.1,0.4-0.3,0.6-0.5
		c0.2-0.3,0.2-0.7,0-1s-0.5-0.4-0.8-0.4c-0.2,0-0.5,0.1-0.7,0.1c-0.4,0.1-0.8,0.3-1.2,0.5c-0.6,0.3-1.2,0.7-1.7,1.2
		c-0.8,0.9-1.1,1.6-1,1.6s0.5-0.5,1.4-1.2c0.5-0.4,1.1-0.7,1.7-1c0.3-0.2,0.7-0.3,1.1-0.4c0.4-0.1,0.7-0.1,0.8,0s0,0.1,0,0.2
		c-0.1,0.1-0.3,0.3-0.4,0.4c-0.3,0.2-0.7,0.4-1,0.6c-0.6,0.3-1.2,0.6-1.8,0.8C42.3,321.6,41.7,321.8,41.1,322z"/>
	<path class="st3" d="M41.3,322.2c0.1,0,0.4-0.6,0.4-1.9c0-0.7-0.1-1.4-0.3-2.1c-0.1-0.4-0.3-0.8-0.5-1.1c-0.2-0.5-0.7-0.9-1.3-0.9
		c-0.3,0-0.6,0.2-0.8,0.6c-0.1,0.2-0.1,0.5-0.2,0.7c-0.1,0.4-0.1,0.9,0,1.3c0.1,0.7,0.4,1.4,0.9,1.9c0.8,1,1.6,1.1,1.6,1.1
		s-0.6-0.4-1.2-1.4c-0.3-0.5-0.6-1.1-0.7-1.8c-0.1-0.4-0.1-0.7,0-1.1c0-0.4,0.2-0.7,0.3-0.7s0.5,0.3,0.7,0.6c0.2,0.3,0.4,0.7,0.5,1
		c0.2,0.6,0.4,1.2,0.4,1.9C41.4,321.5,41.2,322.2,41.3,322.2z"/>
	<path class="st5" d="M85.9,161.8c1.4,16.3,4.3,33.3,5.7,49.6c0.3,3,0.5,6-0.4,8.9c-1.8,5.2-13.3,8.9-18.6,7.4"/>
	<path class="st3" d="M26.4,150.2c0,0-8.8,21.5-8.8,24.5S36,316.8,36,316.8l25.7-2.2L50.4,186.8l4-27.4L26.4,150.2z"/>
	<path class="st3" d="M85.2,159.1c0,0-6,50.1-8.8,69.5c-3,20.2-8.7,24-8.7,24l-46.4,59.5L3,295.7l40.9-65.5c0,0,10.9-72.7,10.5-70.7
		S85.2,159.1,85.2,159.1z"/>
	<path class="st5" d="M51,189.2c0,0.1,0,0.1,0,0.2c0,0.2,0,0.4-0.1,0.6c-0.1,0.5-0.2,1.3-0.3,2.3c-0.3,2-0.8,4.9-1.4,8.5
		c-1.2,7.3-3,17.5-5,29.4l0,0l0,0l-9.4,15.1L12.4,281l-6.8,10.7l-1.9,2.9l-0.5,0.7c-0.1,0.2-0.2,0.3-0.2,0.2c0-0.1,0.1-0.2,0.1-0.3
		l0.5-0.8l1.8-3l6.7-10.8l22.2-35.7c3.3-5.3,6.5-10.4,9.4-15.1v0.1c2.1-11.9,3.9-22.1,5.2-29.4c0.7-3.6,1.2-6.5,1.6-8.5
		c0.2-1,0.3-1.7,0.4-2.3C51,189.5,51,189.3,51,189.2C51,188.9,51,189.2,51,189.2z"/>
	<path class="st5" d="M66.7,253.5c-0.1,0.2-0.3,0.4-0.4,0.6l-1.3,1.7l-4.9,6.3l-15.9,20.8c-6.2,8.2-11.9,15.5-16,20.8
		c-2.1,2.6-3.8,4.7-5,6.2c-0.6,0.7-1,1.2-1.4,1.6c-0.2,0.2-0.3,0.4-0.5,0.6c0.1-0.2,0.3-0.4,0.4-0.6l1.3-1.7l4.9-6.3l15.9-20.8
		c6.2-8.1,11.9-15.5,16-20.8c2.1-2.6,3.8-4.7,5-6.2l1.4-1.6C66.3,253.9,66.5,253.7,66.7,253.5z"/>
	<path class="st0" d="M40.5,59.2c0,0-9,5.4-11.7,10.2s-17.1,39.8-16.5,45.5s14.1,9.3,14.1,9.3l14.1-18.3l-8.4-5.7l8.4-10.4V59.2z"/>
	<path class="st0" d="M55,54.5l-14.5,4.6c0,0-6.6,62.6-9.9,71.6c-2.1,6.3-3.5,12.8-4.2,19.5c0,0,1.9,17.5,22.2,19.9
		s36.6-9.7,36.6-9.7s12.2-30.9,15.8-57.2s1.1-41.4,1.1-41.4l-22.3-8L55,54.5z"/>
	<path class="st0" d="M98,63.7c-0.6,0.6-9.6,6.6-12.6,16.8s-6.3,20.7-6.3,20.7l-11.7,1.5l6.6,26.9c0,0,14.1-1.5,21.9-14.4
		s12.6-28.7,12.6-28.7S107.5,53.8,98,63.7z"/>
	<path class="st6" d="M26.4,124.2c0,0,32.6,6.5,44.5-7.5l-3.5-11.9c0,0-21.6,5.1-28.3,2.9L26.4,124.2z"/>
	<path class="st6" d="M71.4,102.1c0,0,5-11.1,5.6-11.2s10.2-3.5,10.2-3.5c0.3,0.8,0.3,1.6,0,2.4l3.4,0.4c0,0-0.5,2.1-1.7,2.4
		l1.2,1.1c-0.6,0.8-1.4,1.5-2.3,2c-0.7,0.4-1.6,0.4-2.3,0c0,0,0.4,0.8-1.5,2s-5.3,3.1-5.3,3.1L71.4,102.1z"/>
	<path class="st7" d="M71.4,102.1L71.4,102.1c0.2-0.5,5-11.2,5.6-11.3s10.1-3.5,10.2-3.5l0,0l0,0c0.3,0.8,0.3,1.6,0,2.4l3.4,0.4l0,0
		c0,0.1-0.5,2.1-1.7,2.4l1.2,1.1l0,0c-0.6,0.8-1.4,1.5-2.3,2c-0.7,0.3-1.5,0.3-2.2,0c0.1,0.2,0.1,0.9-1.6,2c-2,1.2-5.3,3.1-5.3,3.1
		l0,0L71.4,102.1z M87.3,87.4c-0.5,0.2-9.6,3.4-10.2,3.5s-3.9,7.3-5.6,11.2l7.3-1.3c0.1-0.1,3.4-1.9,5.3-3.1s1.5-2,1.5-2v-0.1
		l0.1,0.1c0.7,0.3,1.5,0.3,2.2,0c0.9-0.5,1.7-1.2,2.3-2L89,92.6l0,0c1.1-0.3,1.6-2.1,1.7-2.4l-3.4-0.4l0,0
		C87.5,89,87.6,88.1,87.3,87.4z"/>
	<path class="st7" d="M87,89.8c-2,1-4.1,1.8-6.3,2.4c-0.9,0.3-1.7,0.6-2.4,0.9c-0.6,0.3-1.1,0.8-1.4,1.4c-0.6,1-0.8,1.8-0.9,1.8
		c0-0.7,0.2-1.3,0.6-1.9c0.3-0.7,0.9-1.3,1.5-1.6c0.8-0.4,1.6-0.7,2.5-0.9C82.6,90.9,84.8,90.3,87,89.8z"/>
	<path class="st7" d="M89.2,92.6c-0.5,0.3-1.1,0.5-1.7,0.6c-1.1,0.3-2.7,0.5-4.3,1c-1.4,0.4-2.7,1-3.9,1.8c-0.9,0.7-1.2,1.3-1.3,1.2
		c0.2-0.6,0.6-1.1,1.1-1.5c1.2-1,2.5-1.7,4-2c1.7-0.4,3.2-0.6,4.3-0.8C88,92.8,88.6,92.7,89.2,92.6z"/>
	<path class="st7" d="M80.4,97.7c1.3-1.4,3.2-2.1,5.1-1.8c0,0.2-1.2,0.2-2.6,0.7S80.5,97.8,80.4,97.7z"/>
	<path class="st6" d="M68.4,105.5l-27.3-7.6l-8.1,8.9c0,0,27.8,21.8,40.5,21.4"/>
	<path class="st7" d="M73.5,128.2c-1.1,0.1-2.3,0-3.4-0.2c-3-0.6-6-1.7-8.8-3c-7.2-3.3-16.5-9-26.1-16.2l-2.4-1.8l-0.2-0.2l0.2-0.2
		l8.2-8.9l0.1-0.1h0.1l19.6,5.6l5.6,1.6l1.5,0.5c0.2,0,0.3,0.1,0.5,0.2c-0.2,0-0.4-0.1-0.5-0.1l-1.5-0.4l-5.7-1.5L41,98l0.2-0.1
		l-8.1,8.9v-0.4l2.4,1.8c9.6,7.1,18.8,12.9,25.9,16.3c2.8,1.4,5.7,2.4,8.7,3.1c0.5,0.1,0.9,0.2,1.4,0.2c0.4,0.1,0.7,0.1,1.1,0.1
		C72.9,128.1,73.2,128.1,73.5,128.2z"/>
	<path class="st3" d="M86.3,74.3c0,0.7-0.2,1.5-0.4,2.2c-0.3,1.3-0.8,3.1-1.3,5.2s-1.1,3.8-1.5,5.1c-0.2,0.7-0.4,1.4-0.8,2.1
		c0-0.7,0.2-1.5,0.4-2.2c0.3-1.3,0.8-3.1,1.3-5.2s1.1-3.8,1.5-5.1C85.7,75.7,86,75,86.3,74.3z"/>
	<path class="st3" d="M85.1,110.9c-0.1,0-0.4-1.4-1-3.5c-0.4-1.2-1-2.4-1.8-3.4c-0.9-1.2-2.3-2.1-3.8-2.4c-1.6-0.1-3.2,0.1-4.7,0.5
		l-3.8,0.8c-0.5,0.1-1,0.2-1.4,0.4c-0.3,0.1-0.6,0.4-0.7,0.7c-0.1,0.3-0.1,0.6,0,0.9c0,0-0.4-0.3-0.2-0.9c0.1-0.4,0.4-0.7,0.8-0.9
		c0.5-0.2,1-0.4,1.5-0.5l3.8-0.9c1.6-0.5,3.2-0.7,4.8-0.6c1.7,0.3,3.1,1.3,4.1,2.6c0.8,1.1,1.4,2.3,1.7,3.6c0.2,0.9,0.4,1.7,0.6,2.6
		C85,110.3,85.1,110.6,85.1,110.9z"/>
	<path class="st3" d="M89.1,105c-0.8-1.4-1.9-2.7-3.2-3.7c-2.2-1.6-4.5-1.8-4.5-2c0.5-0.1,1-0.1,1.5,0.1c1.2,0.3,2.3,0.7,3.3,1.4
		c1,0.7,1.8,1.6,2.4,2.7C88.9,104,89,104.5,89.1,105z"/>
	<path class="st3" d="M108.5,86.4c0,0.2-0.1,0.4-0.2,0.6l-0.5,1.6c-0.5,1.5-1.2,3.5-2,5.9s-1.9,5.5-3.4,8.7s-3.2,6.6-5.2,10.1
		c-1.9,3.3-4.4,6.2-7.3,8.7c-2.4,2-5,3.7-7.9,4.9c-1.9,0.8-3.9,1.4-6,1.7c-0.7,0.1-1.3,0.1-1.7,0.1c-0.2,0-0.4,0-0.6,0
		c0-0.1,0.8-0.1,2.3-0.4c2-0.4,4-1,5.9-1.8c6.2-2.9,11.5-7.6,14.9-13.6c2-3.4,3.7-6.9,5.3-10s2.5-6.1,3.4-8.6s1.6-4.5,2.2-5.9
		c0.2-0.6,0.5-1.2,0.6-1.6C108.3,86.8,108.4,86.6,108.5,86.4z"/>
	<path class="st3" d="M100,64.4c0,0.1-2.2,1-4.8,2.5s-4.4,3.1-4.5,3c1.2-1.4,2.6-2.6,4.2-3.5C96.5,65.4,98.2,64.7,100,64.4z"/>
	<path class="st3" d="M39.4,87c0.1-1.7,0.4-3.4,0.8-5.1c0.3-1.7,0.7-3.4,1.3-5c-0.1,1.7-0.4,3.4-0.8,5.1C40.4,83.7,40,85.3,39.4,87z
		"/>
	<path class="st3" d="M77.7,135.9c-0.5,0.3-1,0.5-1.5,0.8c-0.5,0.2-1.1,0.5-1.8,0.8s-1.5,0.6-2.4,0.9c-2.2,0.8-4.3,1.4-6.6,1.9
		c-2.7,0.6-5.5,1-8.3,1.3c-2.8,0.2-5.6,0.3-8.4,0.2c-2.3-0.1-4.5-0.4-6.8-0.7c-1-0.1-1.8-0.3-2.6-0.5s-1.4-0.3-1.9-0.5
		c-0.6-0.1-1.1-0.3-1.6-0.5c0.6,0.1,1.1,0.2,1.7,0.3c0.5,0.1,1.2,0.2,1.9,0.4s1.6,0.3,2.6,0.4c2.2,0.3,4.5,0.5,6.8,0.6
		c5.5,0.2,11.1-0.3,16.5-1.5c2.2-0.5,4.4-1.1,6.6-1.8c0.9-0.3,1.7-0.6,2.5-0.9s1.3-0.5,1.8-0.7C76.6,136.3,77.1,136.1,77.7,135.9z"
		/>
	<path class="st3" d="M53.8,151.2c-2.1-0.3-4.1-0.8-6-1.5c-2-0.6-3.9-1.4-5.7-2.4c2,0.5,3.9,1.2,5.8,1.9
		C49.9,149.8,51.9,150.5,53.8,151.2z"/>
	<g class="st4">
		<path d="M31.5,126.7c3.1,2.4,7,3.7,11,3.7c3.6-0.1,7.1-1.2,10.7-1.1c2.8,0.2,5.6,0.8,8.3,1.7c4.6,1.2,9.3,2,14,1.2
			s9.2-3.5,11.1-7.8c-6.4,4.3-14.4,5.1-21.5,2.2c-1.9-0.8-3.8-1.9-5.8-2.2c-2.5-0.4-5,0.4-7.5,0.9c-6.9,1.4-14,0.3-21-0.9"/>
	</g>
	<g class="st4">
		<path d="M42.9,148.3c3.1,5.1,8.4,8.5,14.3,9.1c1.3,0.2,2.6,0,3.8-0.3c1.2-0.4,2.3-1.2,2.8-2.4c-1.4-0.9-2.9-1.5-4.4-1.8l-16.3-4.5
			"/>
	</g>
	<path class="st8" d="M62.6,100.8c-0.1,0.1-2.2-5.3-4.6-11.9s-4.3-12-4.1-12.1s2.2,5.3,4.6,11.9S62.8,100.8,62.6,100.8z"/>
	<path class="st8" d="M73.4,74.1c0.1,0.1-5.6,5.3-12.8,11.6S47.7,97,47.6,96.9s5.6-5.3,12.8-11.6S73.3,74,73.4,74.1z"/>
	<path class="st6" d="M67.2,66c6.3,0,11.3-5.1,11.3-11.3l0,0V20.2c0-9.1-7.3-16.6-16.5-16.6c-0.2,0-0.4,0-0.5,0h-0.2
		c-9,0.7-15.9,8.3-15.9,17.3c0,7.9,0.1,16.5,0.5,20.7c0.8,8.9,9.9,9.6,9.9,9.6v3.5C55.8,60.9,60.9,66,67.2,66L67.2,66z"/>
	<path class="st7" d="M55.8,51c4.1-0.3,8.1-1.8,11.3-4.3c0,0-2.2,6.6-11.2,6.6L55.8,51z"/>
	<path class="st3" d="M48.4,27.2c0.1,0.7,0.6,1.2,1.3,1.2s1.2-0.5,1.2-1.2l0,0c0-0.7-0.6-1.2-1.3-1.2S48.4,26.5,48.4,27.2L48.4,27.2
		z"/>
	<path class="st3" d="M47.7,24.5c0.2,0.1,1.1-0.6,2.4-0.8s2.4,0.5,2.6,0.3s-0.1-0.4-0.6-0.6C51.5,23,50.7,22.9,50,23
		c-0.7,0.1-1.4,0.3-1.9,0.8C47.7,24.1,47.6,24.4,47.7,24.5z"/>
	<path class="st3" d="M61.5,26.6c0,0.7,0.6,1.2,1.3,1.2s1.2-0.5,1.2-1.2l0,0c-0.1-0.7-0.6-1.2-1.3-1.2S61.5,25.9,61.5,26.6
		L61.5,26.6z"/>
	<path class="st3" d="M61.2,23.7c0.2,0.1,1.1-0.6,2.4-0.8c1.3-0.2,2.4,0.5,2.6,0.3s-0.1-0.4-0.6-0.6c-0.6-0.4-1.4-0.5-2.1-0.4
		c-0.7,0.1-1.4,0.3-1.9,0.8C61.2,23.3,61.1,23.6,61.2,23.7z"/>
	<path class="st3" d="M57.1,34.2C56.4,34,55.6,34,54.9,34c-0.4,0-0.7-0.1-0.8-0.3c-0.1-0.4,0-0.7,0.2-1.1c0.2-0.9,0.5-1.8,0.8-2.8
		c0.8-2.3,1.4-4.7,1.7-7.2c-0.2-0.1-1.2,3.1-2.3,7c-0.3,1-0.5,1.9-0.8,2.8c-0.2,0.4-0.2,0.9-0.1,1.4c0.1,0.2,0.4,0.4,0.6,0.5
		c0.2,0,0.4,0,0.6,0C55.6,34.4,56.3,34.4,57.1,34.2z"/>
	<path class="st3" d="M61.2,34.8c-0.2,0-0.1,1.5-1.3,2.6s-2.8,1.1-2.8,1.3s0.4,0.3,1,0.2c0.9-0.1,1.7-0.4,2.3-1s1-1.4,1-2.2
		C61.5,35.2,61.3,34.8,61.2,34.8z"/>
	<path class="st3" d="M60.4,18.3c0.2,0.4,1.5,0.1,3.2,0.1s3,0.4,3.1,0c0.1-0.2-0.2-0.5-0.7-0.8c-0.7-0.4-1.5-0.6-2.4-0.6
		c-0.8,0-1.7,0.1-2.4,0.5C60.6,17.8,60.3,18.1,60.4,18.3z"/>
	<path class="st3" d="M47.9,20.5c0.3,0.3,1.2-0.1,2.3-0.2s2.1,0,2.3-0.3c0.1-0.2-0.1-0.5-0.5-0.7c-0.6-0.3-1.3-0.4-1.9-0.4
		c-0.7,0.1-1.3,0.3-1.8,0.8C47.9,20,47.8,20.4,47.9,20.5z"/>
	<path class="st3" d="M68,11.2L68,11.2c1.5,1,2.6,2.5,3,4.3v0.2c0.6,2.5,0.7,5.1,1.3,7.6s0.5,4.4,3,5c1.3,0.3,2.7-0.3,3.5-1.4
		c0.2-0.4,0.3-0.8,0.2-1.2c0-6.2,1.2-8.6,0.7-15c-0.1-1.7-1.1-3.3-2.6-4.2c-1.4-0.9-3.2-1.7-4.6-0.9s-3.1,3.8-4.2,5.1"/>
	<path class="st6" d="M75.9,24.5c0.2-0.1,6-2.3,6.3,3.8s-5.9,5.2-5.9,5S75.9,24.5,75.9,24.5z"/>
	<path class="st7" d="M78,30.8c0,0,0.1,0.1,0.3,0.1c0.3,0.1,0.5,0.1,0.8,0c0.8-0.6,1.2-1.5,1.1-2.4c0-0.5-0.1-1-0.4-1.5
		c-0.1-0.4-0.5-0.7-0.8-0.8c-0.3-0.1-0.5,0.1-0.6,0.3c-0.1,0.2,0,0.3-0.1,0.3s-0.1-0.1-0.1-0.4c0-0.2,0.1-0.3,0.2-0.4
		c0.2,0,0.4,0,0.6,0c0.5,0.1,1,0.4,1.2,0.9c0.3,0.5,0.4,1.1,0.4,1.7c0.1,1.1-0.4,2.2-1.4,2.7c-0.3,0.1-0.7,0.1-1-0.1
		C78,31,78,30.9,78,30.8z"/>
	<path class="st3" d="M72.9,6.6c1.3-2.6-3.1-5.7-6.2-6.4s-6.9,1.1-9.8,2.3c-1.8,0.8-3.7,1.8-5.6,1.9c-1.4,0-2.7-0.2-4-0.7
		c-1.3-0.4-2.6-0.6-4-0.4c-1.3,0.2-2.5,1-3,2.3c-0.4,1.2,0.3,2.5,1.5,2.9c0.1,0,0.2,0.1,0.3,0.1c-1.5-0.7-3.3,0-4,1.5s0,3.3,1.5,4
		c0.7,0.3,1.4,0.3,2.1,0.1c-0.9-0.6-2.2,0.6-2,1.7C40,17,40.9,17.8,42,18c2.6,0.9,5.6,0.3,8.1-0.8s4.9-2.7,7.4-3.9s6.8-3.2,9.4-2.5
		c2,0.5,3.5,2.7,4.6,2.1c1-0.6,1.6-1.7,1.7-2.9C73.2,8.9,73.1,7.7,72.9,6.6"/>
	<path class="st5" d="M41.3,8.5c0,0,0.3,0.4,1.1,1.1c1,0.9,2.2,1.6,3.6,1.9c2,0.5,4,0.3,5.8-0.7c2-1.1,3.6-3.1,5.5-5
		c1.7-1.9,4-3.3,6.6-3.9c2.1-0.4,4.3,0.1,6,1.5c1.1,1,1.7,2.4,1.7,3.8c0,0.4-0.1,0.8-0.2,1.1c-0.1,0.2-0.2,0.4-0.2,0.4
		c0.1-0.5,0.1-1,0.1-1.5c-0.1-1.4-0.7-2.6-1.8-3.5C68,2.5,65.9,2,63.9,2.4c-2.4,0.6-4.6,1.9-6.2,3.7C55.8,8,54.2,10,52,11.2
		c-1.9,1-4.1,1.3-6.2,0.6c-1.4-0.4-2.6-1.1-3.6-2.1c-0.3-0.3-0.5-0.6-0.7-0.9C41.4,8.6,41.3,8.5,41.3,8.5z"/>
	<path class="st5" d="M77.4,24.1c0,0-0.3-0.1-0.6-0.6c-0.4-0.7-0.5-1.4-0.5-2.2c0-2,1.5-4.2,1.5-6.9c0-1.3-0.3-2.5-1-3.6
		C76.2,10,75.4,9.3,74.4,9c-0.7-0.2-1.4-0.3-2.1-0.1C72.2,9,71.9,9,71.7,9.1c0,0,0.2-0.2,0.7-0.4c0.7-0.2,1.5-0.3,2.2-0.1
		c1.1,0.3,2.1,0.9,2.8,1.9c0.8,1.1,1.2,2.5,1.1,3.9c0,1.4-0.3,2.7-0.9,3.9c-0.4,1-0.7,2-0.8,3C76.7,22.3,76.9,23.2,77.4,24.1z"/>
	<path class="st5" d="M85.9,161.8c-1.2-1.8-3.9-1.3-6-0.8c-9.2,2.6-19.5,8.6-29,7.5s-17.4-14.4-24.2-21.2l-4.8,12.3
		c2.3,3.9,5,10.2,22.4,12.5c0,0.3,0,0.6,0,0.9c0.1,1.1,0.6,2.1,1.3,2.9c-2.6,3.1-4.4,6.9-5,11c-0.4,2.7-0.3,5.5-0.9,8.2
		s-1.9,5.5-4.3,6.8c-0.8,0.3-1.4,0.8-1.9,1.4c-0.3,0.7-0.3,1.5,0.1,2.1c1.2,2.5,4.9,3.1,7.4,1.8s4.1-3.9,5.2-6.5
		c2.5-5.8,3.4-12.2,4.3-18.5V182c0.5,0.5,1.1,0.8,1.7,1c1.2,0.4,2.8,0.3,3.5,1.3c0.3,0.7,0.5,1.4,0.4,2.2c0,0.8,0.3,1.5,1,1.9
		c0.8,0.2,1.6,0,2.2-0.5l5.1-3.1c0.3-0.2,0.6-0.4,0.6-0.7s-0.3-0.6-0.7-0.6s-0.7,0-1,0c-0.7-0.2-1.2-0.7-1.4-1.3s-0.4-1.3-0.6-1.9
		c-1-2.4-3.1-4.1-5.6-4.7c-1-0.3-2.1-0.4-3.1-0.5c0.3-0.4,0.5-0.8,0.6-1.3c0.1-0.3,0.1-0.7,0.1-1c7.8,0.3,15.6-0.3,23.2-1.8
		c2.7-0.4,5.5-0.7,8.3-0.7C85.1,168,87,163.4,85.9,161.8z"/>
	<path class="st3" d="M45.5,176.2c0,0,0.3-0.7,1.4-1.4c0.6-0.3,1.4-0.5,2.1-0.5c0.2,0,0.4,0,0.6,0c0.3,0,0.5,0.2,0.7,0.4
		c0.1,0.2,0.2,0.5,0.3,0.7c0,0.2,0.1,0.4,0.1,0.7c0.2,1.6,0.3,3.1,0.1,4.7c0,0.7-0.2,1.3-0.4,1.9c0.1-2.2,0.1-4.3-0.1-6.5
		c0-0.4-0.1-0.8-0.3-1.1c-0.1-0.2-0.6-0.2-1-0.2c-0.7,0-1.3,0.1-1.9,0.4C46.5,175.4,46,175.8,45.5,176.2z"/>
	<path class="st3" d="M52.3,175.4c-0.1,0.1-0.5-0.1-1.1-0.2s-1.1-0.2-1.1-0.3s0.5-0.4,1.2-0.2S52.4,175.3,52.3,175.4z"/>
	<path class="st3" d="M53.1,173.9c-0.1,0,0.1-0.8-0.2-2c-0.1-0.7-0.5-1.3-0.9-1.8c-0.6-0.6-1.4-0.9-2.2-0.9c-0.9-0.1-1.7,0-2.6,0.2
		c-0.7,0.2-1.3,0.6-1.7,1.1s-0.7,1.1-0.9,1.7c-0.1-0.7,0.1-1.4,0.6-2s1.1-1,1.9-1.3c0.9-0.3,1.8-0.4,2.7-0.3c1,0,1.9,0.5,2.6,1.2
		c0.5,0.6,0.8,1.3,0.9,2.1C53.4,172.5,53.4,173.2,53.1,173.9z"/>
	<path class="st3" d="M50.6,169.5c0.1,0,0.3,0.2,0.6,0.7c0.3,0.7,0.4,1.4,0.2,2.2c-0.2,0.7-0.5,1.4-1.1,1.9
		c-0.4,0.4-0.8,0.5-0.8,0.4C50.9,173.4,51.4,171.3,50.6,169.5L50.6,169.5z"/>
	<path class="st3" d="M34.5,162.2c1.5,1.5,3.2,3,4.9,4.3c1.8,1.2,3.7,2.3,5.6,3.3c-0.6-0.1-1.3-0.3-1.9-0.6
		c-2.9-1.2-5.5-3.1-7.6-5.5C35.1,163.3,34.8,162.8,34.5,162.2z"/>
	<path class="st3" d="M44.6,170.7c-0.9,0.2-1.8,0.2-2.7,0c-0.9,0-1.8-0.3-2.5-0.8c0.9,0,1.8,0.1,2.6,0.3
		C42.9,170.2,43.8,170.4,44.6,170.7z"/>
	<path class="st3" d="M63.5,169.9c-1.7,0.7-3.4,1.1-5.2,1.2c-1.8,0.3-3.6,0.3-5.4,0c0-0.1,2.4-0.2,5.3-0.6S63.5,169.8,63.5,169.9z"
		/>
	<path class="st3" d="M58.5,172.4c-0.9,0.3-1.9,0.4-2.8,0.2c-1,0-1.9-0.3-2.7-0.8c0.9,0,1.9,0.1,2.8,0.3
		C56.7,172.1,57.6,172.2,58.5,172.4z"/>
	<path class="st3" d="M44.4,190.2c-0.2-0.8-0.3-1.5-0.2-2.3c0.1-3.8,1.2-7.5,3.3-10.7c0.4-0.7,0.9-1.3,1.5-1.8
		c-1.4,2.2-2.5,4.6-3.4,7C44.9,185,44.5,187.6,44.4,190.2z"/>
	<path class="st3" d="M57.9,182.6c-0.1,0-0.3-0.5-0.8-1.2c-0.7-0.9-1.5-1.8-2.4-2.5c-1.4-1-2.6-2.1-3.8-3.3c1.5,0.8,2.8,1.8,4.1,2.9
		c0.9,0.8,1.7,1.7,2.3,2.7C57.8,181.6,57.9,182.1,57.9,182.6z"/>
	<path class="st3" d="M83.6,171c-0.1-1.3,0-2.6,0.2-3.9c0.1-1.3,0.3-2.6,0.8-3.8c0.1,1.3,0,2.6-0.2,3.9
		C84.3,168.5,84,169.8,83.6,171z"/>
	<path class="st5" d="M30.9,106.3l-16.4-0.8c-1.6-0.1-3.1-1.1-3.6-2.7L1.4,74.9c-0.7-2.1,0.4-4.4,2.5-5.1c0.5-0.2,1-0.2,1.5-0.2
		L29,70.4c1.8,0.1,3.3,1.3,3.8,3l6,23.4c1.1,4.1-1.4,8.2-5.5,9.3C32.5,106.3,31.7,106.4,30.9,106.3z"/>
	<path class="st6" d="M26.7,95.2c-1.2,1.2-13.4-5-15.3-4.6s-3.1,1.5-2,2.4s9.4,4.4,9.8,5.6c0,0-12.6-4-13.2-3.2s-1.4,2-0.1,2.6
		s12.2,4,13.1,4.5c1.6,0.7,3.2,1.3,4.9,1.7c1.7,0.5,3.4,1.2,5.1,1.9c2.6,1,5.4,1.1,8,0.2l1.3-0.5c2.1-0.7,3.4-2.7,3.4-4.9v-4.4
		l1.6-3.5l-2.8-5.9l-4.6-1.5l1.8,5.5c-1.8,0.9-4.9,1.5-6.4,0.6s-7.7-6.9-8.8-6.4s-2.2,2-1.1,3.3s6.8,5.5,5.6,6.7"/>
	<path class="st2" d="M19.2,79.9c0,1-0.8,1.8-1.8,1.8s-1.8-0.8-1.8-1.8s0.8-1.8,1.8-1.8l0,0C18.5,78.1,19.2,78.9,19.2,79.9z"/>
	<path class="st3" d="M35.4,91.6c0,0-0.1-0.1-0.2-0.4s-0.3-0.8-0.5-1.3c-0.4-1.1-0.9-2.8-1.6-4.9s-1.4-4.5-2.1-7.3
		c-0.4-1.4-0.5-3-1.4-4.1s-2.7-1.3-4.3-1.3c-6.6-0.1-12.6-0.2-16.9-0.4l-5.1-0.1L2,71.7c-0.2,0-0.3,0-0.5-0.1c0.2,0,0.3,0,0.5,0h1.4
		h5.1c4.3,0,10.3,0.1,16.9,0.2c0.8,0,1.7,0.1,2.5,0.3c0.8,0.2,1.6,0.6,2.2,1.2c0.5,0.6,0.8,1.4,1,2.2c0.2,0.7,0.3,1.4,0.5,2.1
		c0.7,2.8,1.4,5.2,2,7.3s1.1,3.7,1.4,4.9c0.2,0.5,0.3,1,0.4,1.3C35.4,91.4,35.4,91.5,35.4,91.6z"/>
</g>
</svg>
