<svg xmlns="http://www.w3.org/2000/svg" viewBox="0 0 500 500"><g id="freepik--background-simple--inject-17"><path d="M430.73,186.5a142.17,142.17,0,0,0-10.32-24.88c-21.76-40.44-59.92-70.95-101.66-89-33.14-14.31-74.12-21.79-109.28-8.9-17.78,6.52-34.52,19-44.05,35.65C153,121.11,154.17,148,144.31,170.85c-8,18.49-27.88,29.6-43.46,41-24.31,17.72-48.26,38.67-56.69,68.64C32.92,320.44,36.25,368,59,403.53c17,26.51,46.1,34.47,76.13,35,28.34.51,63-6.65,89.45,6.28,45.06,22,104.52,46.7,154.94,29.29,52-17.95,77.47-52.91,85-98.26s-13.22-83.13-19.84-119C440.56,234.15,437.83,209.1,430.73,186.5Z" style="fill:#92E3A9"></path><path d="M430.73,186.5a142.17,142.17,0,0,0-10.32-24.88c-21.76-40.44-59.92-70.95-101.66-89-33.14-14.31-74.12-21.79-109.28-8.9-17.78,6.52-34.52,19-44.05,35.65C153,121.11,154.17,148,144.31,170.85c-8,18.49-27.88,29.6-43.46,41-24.31,17.72-48.26,38.67-56.69,68.64C32.92,320.44,36.25,368,59,403.53c17,26.51,46.1,34.47,76.13,35,28.34.51,63-6.65,89.45,6.28,45.06,22,104.52,46.7,154.94,29.29,52-17.95,77.47-52.91,85-98.26s-13.22-83.13-19.84-119C440.56,234.15,437.83,209.1,430.73,186.5Z" style="fill:#fff;opacity:0.8"></path></g><g id="freepik--Picture--inject-17"><polygon points="56.14 140.96 38.8 150.36 53.25 193.72 46.02 202.39 51.08 209.62 200.65 158.93 77.1 133.01 56.14 140.96" style="opacity:0.2"></polygon><polygon points="79.41 84.86 52.09 145.08 55.19 148.19 82.51 87.34 79.41 84.86" style="fill:#263238;stroke:#263238;stroke-linecap:round;stroke-linejoin:round"></polygon><polygon points="55.19 148.19 106.91 131.83 82.51 87.34 55.19 148.19" style="fill:#9e9e9e;stroke:#263238;stroke-linecap:round;stroke-linejoin:round"></polygon><polygon points="170.94 30.43 91.67 188.57 61.3 53.99 165.41 27.67 170.94 30.43" style="fill:#9e9e9e;stroke:#263238;stroke-linecap:round;stroke-linejoin:round"></polygon><polygon points="200.65 158.93 97.19 191.34 66.82 56.75 170.94 30.43 200.65 158.93" style="fill:#9e9e9e;stroke:#263238;stroke-linecap:round;stroke-linejoin:round"></polygon><polygon points="192.6 153.16 101.58 181.66 74.86 63.26 166.47 40.11 192.6 153.16" style="fill:#fff;stroke:#263238;stroke-linecap:round;stroke-linejoin:round"></polygon><polygon points="66.82 56.75 61.3 53.99 91.67 188.57 97.19 191.34 66.82 56.75" style="fill:#263238;stroke:#263238;stroke-linecap:round;stroke-linejoin:round"></polygon><path d="M173.06,68.64a20.61,20.61,0,0,0-10.86-5c-16.32-2.51-41.32,4.26-44.88,23-2,10.71-2.55,17.85-6.63,21.42s-12.25,6.12-12.76,10.2,7.65,9.18,7.65,9.18c.39.24-1.21,6.93-1.29,7.51-.58,4.31-1.84,8.7-1.43,13.1a16.82,16.82,0,0,0,9.44,13.68c4.22,1.89,8.88,1.23,13.06,3,1.06.45,7,7.3,6.12,7.57l61.12-19.15Z" style="fill:#fff;stroke:#263238;stroke-linecap:round;stroke-linejoin:round"></path><path d="M144.91,52.57A28.48,28.48,0,0,0,134,48.31l-12.89,3.26c-8.09,6.91,3.49,17.84.51,19.63s-16.46-7.46-25.46,5.89,5.59,22.67,13.66,24.22,16.77-10.25,24.22-6.21-.94,13.35.31,20.49,14.28,8.69,15.83,18.31-9.63,1.56-18.94,13.35S129.08,173,129.08,173l63.52-19.87L169.75,55.67S162.3,47.6,144.91,52.57Z" style="fill:#263238;stroke:#263238;stroke-linecap:round;stroke-linejoin:round"></path><path d="M153.72,159.78a14.67,14.67,0,0,0-.39,2.27" style="fill:none;stroke:#fff;stroke-linecap:round;stroke-linejoin:round"></path><path d="M156,88.13c5.11,5.65,3.14,12.13-1.75,18.83-5.6,7.66,1.47,12.67,13.84,17.38s14.14,18.56,6.78,23.57c-6,4.09-15.77,2.68-19.78,8.76" style="fill:none;stroke:#fff;stroke-linecap:round;stroke-linejoin:round"></path><path d="M129.18,85.46s15.9-5.89,24.15.29c.4.3.77.6,1.12.9" style="fill:none;stroke:#fff;stroke-linecap:round;stroke-linejoin:round"></path><path d="M170.19,77.44a17.23,17.23,0,0,1,2.29,2.42" style="fill:none;stroke:#fff;stroke-linecap:round;stroke-linejoin:round"></path><path d="M157.52,71.28a25.53,25.53,0,0,1,11.25,5" style="fill:none;stroke:#fff;stroke-linecap:round;stroke-linejoin:round"></path><path d="M135.36,74.26A41.59,41.59,0,0,1,155.69,71" style="fill:none;stroke:#fff;stroke-linecap:round;stroke-linejoin:round"></path><path d="M119.16,89.58a24.61,24.61,0,0,1-10.6,1.77c-6.19-.3-9.72-6.78-3.54-8.25s11.2,3,7.07,4.71-6.48-1.76-5.3-1.76" style="fill:none;stroke:#fff;stroke-linecap:round;stroke-linejoin:round"></path><path d="M118.38,135.69a17.53,17.53,0,0,0,1.6-.83" style="fill:#fff;stroke:#263238;stroke-linecap:round;stroke-linejoin:round"></path><path d="M107.55,135.75s3.51,2.29,8.87.67" style="fill:#fff;stroke:#263238;stroke-linecap:round;stroke-linejoin:round"></path><path d="M120,109.51a5.62,5.62,0,0,0-.55,1.21c-.57,1.75-.25,3.43.71,3.74s2.21-.85,2.78-2.6c.22-.68.61-.61.58-1.19Z" style="fill:#263238;stroke:#263238;stroke-linecap:round;stroke-linejoin:round"></path><path d="M117.32,103.34s1.33-2.44,5.11-1.55,3.33,6,3.33,6" style="fill:#fff;stroke:#263238;stroke-linecap:round;stroke-linejoin:round"></path><polyline points="119.54 105.78 117.99 108.22 124.2 110.89" style="fill:#fff;stroke:#263238;stroke-linecap:round;stroke-linejoin:round"></polyline></g><g id="freepik--Plant--inject-17"><path d="M385.89,129.06c-13.4,0-25.42,5.11-33.67,13.21l4.23-19-9.23,5.2a33.36,33.36,0,0,0-10.39,6.35c-5.19,4.61-7.5,12.69-7.5,12.69l16.74-7.5s-17.32,16.16-17.32,20.78-1.15,14.42-1.15,14.42l13.34-9c0,.7-.07,1.41-.07,2.12a34.79,34.79,0,0,0,3.36,14.88,21.14,21.14,0,0,0-2.78,9.36,28.7,28.7,0,0,0,1.73,10.39l8.55-9.09c.6.62,1.22,1.21,1.87,1.79l3.43,7.3,5.2,6.35,1.15-6.35-.71-1a49.91,49.91,0,0,0,23.22,5.61c24.86,0,45-17.57,45-39.24S410.75,129.06,385.89,129.06Z" style="opacity:0.2"></path><path d="M411.93,130.81a39.29,39.29,0,0,0-49.31,0H347.94v30.63a39.34,39.34,0,1,0,78.67,0V130.81Z" style="fill:#9e9e9e;stroke:#263238;stroke-linecap:round;stroke-linejoin:round"></path><circle cx="387.27" cy="130.81" r="39.33" style="fill:#bdbdbd;stroke:#263238;stroke-linecap:round;stroke-linejoin:round"></circle><circle cx="387.27" cy="130.81" r="35.83" style="fill:#9e9e9e;stroke:#263238;stroke-linecap:round;stroke-linejoin:round"></circle><ellipse cx="387.27" cy="133.92" rx="33.88" ry="32.71" style="fill:#5c5c5c;stroke:#263238;stroke-linecap:round;stroke-linejoin:round"></ellipse><line x1="385.46" y1="129.21" x2="385.46" y2="64.58" style="fill:none;stroke:#263238;stroke-linecap:round;stroke-linejoin:round;stroke-width:2px"></line><path d="M384.92,118.35S356.68,128.67,348,154.73" style="fill:none;stroke:#263238;stroke-linecap:round;stroke-linejoin:round;stroke-width:2px"></path><path d="M384.92,84.81S373,70.69,348.54,66.89" style="fill:none;stroke:#263238;stroke-linecap:round;stroke-linejoin:round;stroke-width:2px"></path><path d="M356.06,139.62s-17.42-4.35-24.46,3.35-5,19.1-5,19.1,1.67-1.68,10.72-6.37S356.06,139.62,356.06,139.62Z" style="fill:#92E3A9;stroke:#263238;stroke-miterlimit:10"></path><path d="M356.06,139.62A42.54,42.54,0,0,0,335,150.68" style="fill:#92E3A9;stroke:#263238;stroke-miterlimit:10"></path><path d="M349,153.23s-16.52,7-17.48,17.43S339,188.92,339,188.92s.32-2.34,4.7-11.54S349,153.23,349,153.23Z" style="fill:#92E3A9;stroke:#263238;stroke-miterlimit:10"></path><path d="M349,153.23a42.52,42.52,0,0,0-10.16,21.56" style="fill:#92E3A9;stroke:#263238;stroke-miterlimit:10"></path><path d="M363.93,131.12s16.52,7,17.48,17.43-7.52,18.26-7.52,18.26-.32-2.34-4.7-11.54S363.93,131.12,363.93,131.12Z" style="fill:#92E3A9;stroke:#263238;stroke-miterlimit:10"></path><path d="M363.93,131.12a42.52,42.52,0,0,1,10.16,21.56" style="fill:#92E3A9;stroke:#263238;stroke-miterlimit:10"></path><path d="M385,118.39s16.52,7,17.48,17.43S395,154.08,395,154.08s-.33-2.35-4.71-11.54S385,118.39,385,118.39Z" style="fill:#92E3A9;stroke:#263238;stroke-miterlimit:10"></path><path d="M385,118.39a42.46,42.46,0,0,1,10.15,21.55" style="fill:#92E3A9;stroke:#263238;stroke-miterlimit:10"></path><path d="M365,129.83S354.24,115.44,343.92,117s-16,11.62-16,11.62,2.36-.24,12.33,1.85S365,129.83,365,129.83Z" style="fill:#92E3A9;stroke:#263238;stroke-miterlimit:10"></path><path d="M365,129.83a42.57,42.57,0,0,0-23.35-4.78" style="fill:#92E3A9;stroke:#263238;stroke-miterlimit:10"></path><path d="M385.28,112s28.23,10.32,36.92,36.38" style="fill:none;stroke:#263238;stroke-linecap:round;stroke-linejoin:round;stroke-width:2px"></path><path d="M414.14,133.31s17.42-4.36,24.45,3.35,5,19.09,5,19.09-1.68-1.67-10.72-6.36S414.14,133.31,414.14,133.31Z" style="fill:#92E3A9;stroke:#263238;stroke-miterlimit:10"></path><path d="M414.14,133.31a42.43,42.43,0,0,1,21.1,11.05" style="fill:#92E3A9;stroke:#263238;stroke-miterlimit:10"></path><path d="M421.21,146.92s16.52,7,17.48,17.43-7.52,18.26-7.52,18.26-.33-2.35-4.71-11.55S421.21,146.92,421.21,146.92Z" style="fill:#92E3A9;stroke:#263238;stroke-miterlimit:10"></path><path d="M421.21,146.92a42.52,42.52,0,0,1,10.16,21.55" style="fill:#92E3A9;stroke:#263238;stroke-miterlimit:10"></path><path d="M406.27,124.8s-16.52,7-17.48,17.44,7.52,18.25,7.52,18.25.32-2.34,4.7-11.54S406.27,124.8,406.27,124.8Z" style="fill:#92E3A9;stroke:#263238;stroke-miterlimit:10"></path><path d="M406.27,124.8a42.52,42.52,0,0,0-10.16,21.56" style="fill:#92E3A9;stroke:#263238;stroke-miterlimit:10"></path><path d="M405.21,123.51s10.75-14.39,21.07-12.86,16,11.61,16,11.61-2.36-.23-12.33,1.85S405.21,123.51,405.21,123.51Z" style="fill:#92E3A9;stroke:#263238;stroke-miterlimit:10"></path><path d="M405.21,123.51a42.57,42.57,0,0,1,23.35-4.78" style="fill:#92E3A9;stroke:#263238;stroke-miterlimit:10"></path><path d="M385.09,118.1S374.34,103.71,364,105.24s-16,11.62-16,11.62,2.36-.24,12.33,1.84S385.09,118.1,385.09,118.1Z" style="fill:#92E3A9;stroke:#263238;stroke-miterlimit:10"></path><path d="M385.09,118.1a42.51,42.51,0,0,0-23.35-4.77" style="fill:#92E3A9;stroke:#263238;stroke-miterlimit:10"></path><path d="M384.51,83.81s-18-.33-23.08,8.76-.61,19.74-.61,19.74,1.26-2,9-8.62S384.51,83.81,384.51,83.81Z" style="fill:#92E3A9;stroke:#263238;stroke-miterlimit:10"></path><path d="M384.51,83.81a42.43,42.43,0,0,0-18.08,15.51" style="fill:#92E3A9;stroke:#263238;stroke-miterlimit:10"></path><path d="M360,68.92s-13.09-12.29-23-9-13.7,14.23-13.7,14.23,2.28-.65,12.47-.34S360,68.92,360,68.92Z" style="fill:#92E3A9;stroke:#263238;stroke-miterlimit:10"></path><path d="M360,68.92a42.48,42.48,0,0,0-23.82-.63" style="fill:#92E3A9;stroke:#263238;stroke-miterlimit:10"></path><path d="M368.76,73.69s-17.93-1-23.38,7.92-1.33,19.7-1.33,19.7,1.33-2,9.33-8.28S368.76,73.69,368.76,73.69Z" style="fill:#92E3A9;stroke:#263238;stroke-miterlimit:10"></path><path d="M368.76,73.69a42.51,42.51,0,0,0-18.64,14.85" style="fill:#92E3A9;stroke:#263238;stroke-miterlimit:10"></path><path d="M373.22,74.81s3.82-17.54-4.09-24.34S349.89,46,349.89,46s1.72,1.63,6.68,10.53S373.22,74.81,373.22,74.81Z" style="fill:#92E3A9;stroke:#263238;stroke-miterlimit:10"></path><path d="M373.22,74.81a42.5,42.5,0,0,0-11.69-20.76" style="fill:#92E3A9;stroke:#263238;stroke-miterlimit:10"></path><path d="M385.91,104.91S397.86,90.8,422.29,87" style="fill:none;stroke:#263238;stroke-linecap:round;stroke-linejoin:round;stroke-width:2px"></path><path d="M386.33,103.91s17.95-.33,23.07,8.76.61,19.74.61,19.74-1.26-2-9-8.61S386.33,103.91,386.33,103.91Z" style="fill:#92E3A9;stroke:#263238;stroke-miterlimit:10"></path><path d="M386.33,103.91a42.47,42.47,0,0,1,18.08,15.52" style="fill:#92E3A9;stroke:#263238;stroke-miterlimit:10"></path><path d="M410.89,89s13.09-12.29,23-9,13.69,14.23,13.69,14.23-2.28-.65-12.46-.34S410.89,89,410.89,89Z" style="fill:#92E3A9;stroke:#263238;stroke-miterlimit:10"></path><path d="M410.89,89a42.46,42.46,0,0,1,23.82-.63" style="fill:#92E3A9;stroke:#263238;stroke-miterlimit:10"></path><path d="M402.08,93.8s17.93-1,23.38,7.91,1.32,19.7,1.32,19.7-1.33-2-9.32-8.28S402.08,93.8,402.08,93.8Z" style="fill:#92E3A9;stroke:#263238;stroke-miterlimit:10"></path><path d="M402.08,93.8a42.44,42.44,0,0,1,18.63,14.84" style="fill:#92E3A9;stroke:#263238;stroke-miterlimit:10"></path><path d="M397.62,94.91s-3.83-17.54,4.09-24.34S421,66.12,421,66.12s-1.73,1.63-6.69,10.53S397.62,94.91,397.62,94.91Z" style="fill:#92E3A9;stroke:#263238;stroke-miterlimit:10"></path><path d="M397.62,94.91a42.5,42.5,0,0,1,11.69-20.76" style="fill:#92E3A9;stroke:#263238;stroke-miterlimit:10"></path><path d="M385.24,69.74s11.95-14.12,36.38-17.92" style="fill:none;stroke:#263238;stroke-linecap:round;stroke-linejoin:round;stroke-width:2px"></path><path d="M385.66,68.73s17.95-.33,23.07,8.76.61,19.74.61,19.74-1.26-2-9-8.61S385.66,68.73,385.66,68.73Z" style="fill:#92E3A9;stroke:#263238;stroke-miterlimit:10"></path><path d="M385.66,68.73a42.47,42.47,0,0,1,18.08,15.52" style="fill:#92E3A9;stroke:#263238;stroke-miterlimit:10"></path><path d="M386.05,68.18s-10.85-14.31-6.52-23.81,15.59-12.11,15.59-12.11-.88,2.2-1.64,12.36S386.05,68.18,386.05,68.18Z" style="fill:#92E3A9;stroke:#263238;stroke-miterlimit:10"></path><path d="M386.05,68.18a42.5,42.5,0,0,1,1.88-23.75" style="fill:#92E3A9;stroke:#263238;stroke-miterlimit:10"></path><path d="M410.22,53.84s13.09-12.29,23-9S446.9,59.08,446.9,59.08s-2.28-.65-12.46-.34S410.22,53.84,410.22,53.84Z" style="fill:#92E3A9;stroke:#263238;stroke-miterlimit:10"></path><path d="M410.22,53.84A42.57,42.57,0,0,1,434,53.21" style="fill:#92E3A9;stroke:#263238;stroke-miterlimit:10"></path><path d="M401.41,58.62s17.93-1,23.38,7.91,1.32,19.7,1.32,19.7-1.33-2-9.32-8.27S401.41,58.62,401.41,58.62Z" style="fill:#92E3A9;stroke:#263238;stroke-miterlimit:10"></path><path d="M401.41,58.62A42.51,42.51,0,0,1,420,73.47" style="fill:#92E3A9;stroke:#263238;stroke-miterlimit:10"></path><path d="M397,59.74S393.12,42.19,401,35.39,420.28,31,420.28,31s-1.73,1.62-6.69,10.52S397,59.74,397,59.74Z" style="fill:#92E3A9;stroke:#263238;stroke-miterlimit:10"></path><path d="M397,59.74A42.51,42.51,0,0,1,408.64,39" style="fill:#92E3A9;stroke:#263238;stroke-miterlimit:10"></path><path d="M384.84,86.44s7.88-16.14,1.81-24.62S369,52.93,369,52.93s1.29,2,4,11.81S384.84,86.44,384.84,86.44Z" style="fill:#92E3A9;stroke:#263238;stroke-miterlimit:10"></path><path d="M384.84,86.44a42.54,42.54,0,0,0-6.42-22.95" style="fill:#92E3A9;stroke:#263238;stroke-miterlimit:10"></path></g><g id="freepik--Device--inject-17"><rect x="370.22" y="224.1" width="67.71" height="127.9" rx="7.67" transform="translate(140.35 -132.3) rotate(22.41)" style="opacity:0.2"></rect><rect x="372.46" y="224.1" width="67.71" height="127.9" rx="7.67" transform="translate(140.52 -133.16) rotate(22.41)" style="fill:#fff;stroke:#263238;stroke-linecap:round;stroke-linejoin:round"></rect><rect x="375.47" y="238.15" width="61.69" height="99.81" transform="translate(140.52 -133.16) rotate(22.41)" style="fill:#263238;stroke:#263238;stroke-linecap:round;stroke-linejoin:round"></rect><line x1="387.04" y1="301.69" x2="372.05" y2="306.25" style="fill:none;stroke:#8a8a8a;stroke-linecap:round;stroke-linejoin:round"></line><line x1="439.02" y1="285.87" x2="391.63" y2="300.29" style="fill:none;stroke:#8a8a8a;stroke-linecap:round;stroke-linejoin:round"></line><line x1="411.25" y1="289.2" x2="414.56" y2="288.2" style="fill:none;stroke:#8a8a8a;stroke-linecap:round;stroke-linejoin:round"></line><line x1="377.87" y1="299.26" x2="407.19" y2="290.42" style="fill:none;stroke:#8a8a8a;stroke-linecap:round;stroke-linejoin:round"></line><path d="M434.21,238l-12.4-5.11a.91.91,0,0,1-.5-1.19h0a.91.91,0,0,1,1.19-.5l12.4,5.11a.92.92,0,0,1,.5,1.2h0A.91.91,0,0,1,434.21,238Z" style="fill:#263238"></path><path d="M388.52,340.79a3.66,3.66,0,1,0-4.78,2A3.66,3.66,0,0,0,388.52,340.79Z" style="fill:#fff;stroke:#263238;stroke-miterlimit:10;stroke-width:0.704333px"></path><rect x="383.29" y="337.54" width="3.71" height="3.71" transform="translate(158.49 -121.21) rotate(22.41)" style="fill:#263238"></rect></g><g id="freepik--Letter--inject-17"><rect x="157.13" y="176.35" width="158.38" height="217.46" transform="translate(-57.44 59.64) rotate(-12.84)" style="fill:#92E3A9;stroke:#263238;stroke-miterlimit:10"></rect><rect x="160.73" y="181.3" width="151.18" height="207.58" transform="translate(-57.44 59.64) rotate(-12.84)" style="fill:#fff;stroke:#263238;stroke-linecap:round;stroke-linejoin:round"></rect><line x1="242.1" y1="195.84" x2="280.92" y2="186.13" style="fill:none;stroke:#263238;stroke-linecap:round;stroke-linejoin:round"></line><line x1="157.25" y1="217.05" x2="174.87" y2="212.65" style="fill:none;stroke:#263238;stroke-linecap:round;stroke-linejoin:round"></line><line x1="285" y1="227.9" x2="290.86" y2="226.44" style="fill:none;stroke:#263238;stroke-linecap:round;stroke-linejoin:round"></line><line x1="258.28" y1="234.58" x2="281.75" y2="228.71" style="fill:none;stroke:#263238;stroke-linecap:round;stroke-linejoin:round"></line><line x1="244.65" y1="237.99" x2="254.41" y2="235.55" style="fill:none;stroke:#263238;stroke-linecap:round;stroke-linejoin:round"></line><line x1="217" y1="244.9" x2="240.31" y2="239.07" style="fill:none;stroke:#263238;stroke-linecap:round;stroke-linejoin:round"></line><line x1="199.19" y1="249.36" x2="212.9" y2="245.93" style="fill:none;stroke:#263238;stroke-linecap:round;stroke-linejoin:round"></line><line x1="167.19" y1="257.36" x2="194.85" y2="250.44" style="fill:none;stroke:#263238;stroke-linecap:round;stroke-linejoin:round"></line><line x1="275.84" y1="243.58" x2="295.83" y2="238.58" style="fill:none;stroke:#263238;stroke-linecap:round;stroke-linejoin:round"></line><line x1="234.4" y1="253.94" x2="271.27" y2="244.72" style="fill:none;stroke:#263238;stroke-linecap:round;stroke-linejoin:round"></line><line x1="206.13" y1="261.01" x2="227.74" y2="255.61" style="fill:none;stroke:#263238;stroke-linecap:round;stroke-linejoin:round"></line><line x1="172.15" y1="269.5" x2="202.18" y2="262" style="fill:none;stroke:#263238;stroke-linecap:round;stroke-linejoin:round"></line><line x1="285.21" y1="255.04" x2="298.04" y2="251.83" style="fill:none;stroke:#263238;stroke-linecap:round;stroke-linejoin:round"></line><line x1="249.89" y1="263.87" x2="281.18" y2="256.05" style="fill:none;stroke:#263238;stroke-linecap:round;stroke-linejoin:round"></line><line x1="241.91" y1="265.87" x2="246.94" y2="264.61" style="fill:none;stroke:#263238;stroke-linecap:round;stroke-linejoin:round"></line><line x1="218.13" y1="271.81" x2="238.35" y2="266.76" style="fill:none;stroke:#263238;stroke-linecap:round;stroke-linejoin:round"></line><line x1="181.5" y1="280.97" x2="214.96" y2="272.6" style="fill:none;stroke:#263238;stroke-linecap:round;stroke-linejoin:round"></line><line x1="174.36" y1="282.75" x2="178.56" y2="281.71" style="fill:none;stroke:#263238;stroke-linecap:round;stroke-linejoin:round"></line><line x1="274.03" y1="271.23" x2="300.8" y2="264.53" style="fill:none;stroke:#263238;stroke-linecap:round;stroke-linejoin:round"></line><line x1="229.34" y1="282.4" x2="269.23" y2="272.43" style="fill:none;stroke:#263238;stroke-linecap:round;stroke-linejoin:round"></line><line x1="218.19" y1="285.19" x2="225.16" y2="283.44" style="fill:none;stroke:#263238;stroke-linecap:round;stroke-linejoin:round"></line><line x1="177.12" y1="295.45" x2="212.76" y2="286.54" style="fill:none;stroke:#263238;stroke-linecap:round;stroke-linejoin:round"></line><line x1="246.51" y1="291.5" x2="250.56" y2="290.48" style="fill:none;stroke:#263238;stroke-linecap:round;stroke-linejoin:round"></line><line x1="213.67" y1="299.71" x2="242.48" y2="292.5" style="fill:none;stroke:#263238;stroke-linecap:round;stroke-linejoin:round"></line><line x1="179.88" y1="308.15" x2="209.02" y2="300.87" style="fill:none;stroke:#263238;stroke-linecap:round;stroke-linejoin:round"></line></g><g id="freepik--hand-2--inject-17"><path d="M347.76,372.22c-1.09-13.05-9.24-42.4-20.11-46.21-6.73-2.35-23.73,4.81-35.7,10.62,1-4.43,1.69-8.83,1.69-8.83L260.3,293l.47,4.51,11.91,31.32s-4.66,5.17-3.63,7,7.77,3.1,7.77,3.1-2.07.52-.78,3.88a27.82,27.82,0,0,0,4.14,6.73l.36-.16a16.4,16.4,0,0,0,2.23,2c6.52,4.9,7.91,5.11,7.91,5.11s2.72-.55,3.81,13.59-3.27,19,3.8,27.72,59.25,68,59.25,68S348.85,385.27,347.76,372.22Z" style="opacity:0.2"></path><path d="M290.17,303.09s-6.41,7-11.65,10.48-8.89,8.11-4.07,10.47c2.89,1.42,7-.58,7-.58s-6.4,1.75-7.56,7.57,11.64,3.49,11.64,3.49-9.32,6.41-6.4,8.74,8.73.58,11.64.58,17.46-9.32,21-9.32,10.48,7.57,10.48,13.39,9.31,5.24,10.47-12.8-3.49-33.19-11.06-37.85S290.17,303.09,290.17,303.09Z" style="fill:#fff;stroke:#263238;stroke-linecap:round;stroke-linejoin:round"></path><path d="M286.67,322.88l23.24-8.68s10.2-2.22,17.52,9.84" style="fill:none;stroke:#263238;stroke-linecap:round;stroke-linejoin:round"></path><path d="M290.75,329.87l21-3.5s9.31-.58,15.13,10.48" style="fill:none;stroke:#263238;stroke-linecap:round;stroke-linejoin:round"></path><path d="M428.7,455.32c-12.81-12.27-67-59.39-67.51-62.58-.58-3.49-2.91-44.24-2.91-50.07s-11.64-19.79-11.64-19.79-4.78-6.85-7.11-18.49-13-16.43-18.84-15.85-21.79,2.32-28.19,7-12.23,10.48-6.41,12.22c9.67,2.9,25.5-10,33.13-1.08,3.49,4.08,7.62,22,8.21,24.37a7.49,7.49,0,0,1-2.19,6.76,67.54,67.54,0,0,1-8.88,6s-9.46,2.79-13.54,3.13-4.08,20,.34,25.81,10.87,32.61,16.3,39.41C324.64,418.66,371,488,371,488" style="fill:#fff;stroke:#263238;stroke-linecap:round;stroke-linejoin:round"></path><path d="M258,290.05a.53.53,0,0,1,.7-.07l2.81,1.26A1.08,1.08,0,1,1,260.3,293l-2.2-2.15a.54.54,0,0,1-.13-.75Z" style="fill:#263238;stroke:#263238;stroke-linecap:round;stroke-linejoin:round"></path><path d="M260.48,291.65a2.47,2.47,0,0,1,3.21-.34l7.46,3.85,73.23,48.18a5.79,5.79,0,1,1-6.61,9.5l-71.08-52.43-5.82-5.05a2.46,2.46,0,0,1-.61-3.43A1.51,1.51,0,0,1,260.48,291.65Z" style="fill:#92E3A9;stroke:#263238;stroke-linecap:round;stroke-linejoin:round"></path><path d="M344.38,343.34l-21.13-13.91a8,8,0,0,0-5.78,7.49,8.42,8.42,0,0,0,.08,1l20.22,14.91a5.79,5.79,0,1,0,6.61-9.5Z" style="fill:#263238;stroke:#263238;stroke-linecap:round;stroke-linejoin:round"></path><path d="M317.77,409.13c-23-26-19.17-40.36-22.67-45s-5.57-9-9.06-19.51-5.77-18.81-5.77-27.54,7.5-10.24,13.32-.93,12.88,23.63,12.88,23.63,4.65,5.82,14,4.08" style="fill:#fff;stroke:#263238;stroke-linecap:round;stroke-linejoin:round"></path><path d="M306.47,339.76S313,345.93,316,351" style="fill:none;stroke:#263238;stroke-linecap:round;stroke-linejoin:round"></path><path d="M287.57,313.41l1.94,3.89s-.44,0-3.54,1.78a12.67,12.67,0,0,0-4.54,4.38s-3-8.37-.34-11a4.26,4.26,0,0,1,2.42-1.26A4,4,0,0,1,287.57,313.41Z" style="fill:#fff;stroke:#263238;stroke-linecap:round;stroke-linejoin:round"></path><path d="M295.88,334.6l.94-.11" style="fill:none;stroke:#263238;stroke-linecap:round;stroke-linejoin:round"></path><path d="M287.16,339.43s.54-3.18,6.94-4.53" style="fill:none;stroke:#263238;stroke-linecap:round;stroke-linejoin:round"></path><path d="M294.13,337.19s-.45,1.34-4.94,3.14" style="fill:none;stroke:#263238;stroke-linecap:round;stroke-linejoin:round"></path><path d="M293.94,332.91a14.81,14.81,0,0,0-6.23,2.54" style="fill:none;stroke:#263238;stroke-linecap:round;stroke-linejoin:round"></path></g><g id="freepik--hand-1--inject-17"><path d="M170.28,252.17s-4.08,11.33-5.71,14.05-10.33,13-12,15.76-4.9,11.42-4.9,11.42l26.41-6.68s-7.38,11-11.73,16.46S148.8,320,148.8,321.67s-2.17,8.15-2.17,8.15l12.5,9.24,25.55-9.24L195,326s-20.66,13.05-27.18,19.57-29.36,19.57-35.34,23.92S114,376,109.12,377.11,61.28,413,61.28,413l62-127.2,17.94-29.9L157,244.48l-1.63,17.93Z" style="opacity:0.2"></path><path d="M36.5,439.4l65.26-67.15A84.81,84.81,0,0,0,118,368.41c10-3.25,13-4.13,17.72-7.67s24.22-13.88,32.48-19.2,22.74-11.22,25.4-13.59.59-5.31-6.49-6.79-14.18.3-23.63,4.43-19.2,7.68-18.9,5.61,2.07-12.4,3.84-15.94,19.5-22.63,19.79-23.52,2.37-1.77,5.91-5,9.16-7.08,10-12.7-3.54-3.54-5.31-2.65-14.18,6.2-17.43,8.27-22.21,22.05-22.21,22.05l13.35-28a43.22,43.22,0,0,0,4.73-5c1.77-2.36,12.4-13.88,13-16.54a4.39,4.39,0,0,0-5.31-5c-3.25.89-13.46,9.91-16.84,12.4-7,5.18-18.31,24.81-18.31,24.81l12.41-22.74s9.45-8.56,11.81-11.22,5.21-8.54,2.66-11.22c-2.71-2.85-8.58,1.94-13,6.49-4.06,4.19-10,9.45-10,9.45s3.55-4.13,2.66-7.67-7.68,1.47-9.74,2.06-19.79,16.25-22.45,18.31-8.21,19-8.21,19L74.46,331.62,10,378" style="fill:#fff;stroke:#263238;stroke-linecap:round;stroke-linejoin:round"></path><path d="M133.66,255.12,125,262.61a12,12,0,0,0-2.39,2.83L107.23,290.6" style="fill:none;stroke:#263238;stroke-linecap:round;stroke-linejoin:round"></path><path d="M193.09,323.27l-4.46.29s3,2.68.3,6.54" style="fill:none;stroke:#263238;stroke-linecap:round;stroke-linejoin:round"></path><path d="M177.7,272.76s1.91-.26,4.09,3.19a6.73,6.73,0,0,0,2.15-3.19" style="fill:none;stroke:#263238;stroke-linecap:round;stroke-linejoin:round"></path><path d="M161.35,249.57a15.91,15.91,0,0,1,5.14,2.16c.8.62,2.27-.47,2.88-1.27h0" style="fill:none;stroke:#263238;stroke-linecap:round;stroke-linejoin:round"></path><path d="M149.45,241.24a5.89,5.89,0,0,1,2.38.6,18.76,18.76,0,0,1,2.68,1.78,4.08,4.08,0,0,0,2.38-2.38" style="fill:none;stroke:#263238;stroke-linecap:round;stroke-linejoin:round"></path><path d="M129.83,248.38s2-.21,3,.59c1.43,1.22.6,1.79.6,1.79s2.43-.86,2.67-2.09" style="fill:none;stroke:#263238;stroke-linecap:round;stroke-linejoin:round"></path><path d="M162.83,282.57a13.65,13.65,0,0,1,4.16,4.76" style="fill:none;stroke:#263238;stroke-linecap:round;stroke-linejoin:round"></path><path d="M161.05,283.16a25.22,25.22,0,0,0,3.86,3.57" style="fill:none;stroke:#263238;stroke-linecap:round;stroke-linejoin:round"></path><line x1="167.29" y1="283.46" x2="169.37" y2="286.14" style="fill:none;stroke:#263238;stroke-linecap:round;stroke-linejoin:round"></line><line x1="172.28" y1="326.54" x2="174.36" y2="330.1" style="fill:none;stroke:#263238;stroke-linecap:round;stroke-linejoin:round"></line><line x1="174.96" y1="332.19" x2="175.55" y2="333.37" style="fill:none;stroke:#263238;stroke-linecap:round;stroke-linejoin:round"></line><path d="M177,327.43a28,28,0,0,1,.59,7.43" style="fill:none;stroke:#263238;stroke-linecap:round;stroke-linejoin:round"></path><path d="M145.29,265s3-.3,5.35,3.27" style="fill:none;stroke:#263238;stroke-linecap:round;stroke-linejoin:round"></path><line x1="146.78" y1="268.59" x2="149.45" y2="270.08" style="fill:none;stroke:#263238;stroke-linecap:round;stroke-linejoin:round"></line><line x1="147.67" y1="264.14" x2="149.45" y2="265.32" style="fill:none;stroke:#263238;stroke-linecap:round;stroke-linejoin:round"></line><path d="M129.53,260.86a6.27,6.27,0,0,1,5.65,1.49" style="fill:none;stroke:#263238;stroke-linecap:round;stroke-linejoin:round"></path><path d="M130.72,262.65a23.1,23.1,0,0,0,4.16,1.49" style="fill:none;stroke:#263238;stroke-linecap:round;stroke-linejoin:round"></path><line x1="134.29" y1="259.38" x2="136.37" y2="259.97" style="fill:none;stroke:#263238;stroke-linecap:round;stroke-linejoin:round"></line><path d="M109.91,265.92a13.93,13.93,0,0,1,5.65,0" style="fill:none;stroke:#263238;stroke-linecap:round;stroke-linejoin:round"></path><line x1="116.15" y1="264.14" x2="119.13" y2="265.32" style="fill:none;stroke:#263238;stroke-linecap:round;stroke-linejoin:round"></line><line x1="129.82" y1="284.36" x2="123.44" y2="296.51" style="fill:none;stroke:#263238;stroke-linecap:round;stroke-linejoin:round"></line></g></svg>