<svg xmlns="http://www.w3.org/2000/svg" viewBox="0 0 500 500"><g id="freepik--background-simple--inject-187"><path d="M394,93S348,43,240,53,92,110,69,163,84,269,82,294s-16,79,47,131,133.4,51.4,212,24c109-38,61-113,81-140s39-66,25-121S416,116,394,93Z" style="fill:#92E3A9"></path><path d="M394,93S348,43,240,53,92,110,69,163,84,269,82,294s-16,79,47,131,133.4,51.4,212,24c109-38,61-113,81-140s39-66,25-121S416,116,394,93Z" style="fill:#fff;opacity:0.7000000000000001"></path></g><g id="freepik--Plants--inject-187"><path d="M140.74,220c0,.06,3.75-3.56,3.95-3.81,2.41-3,5.31-10.09,3-13.67a5.05,5.05,0,0,0-7.46-.95c-2.35,1.89-3,5.54-2.94,8.38C137.38,213.33,140.74,220,140.74,220Z" style="fill:#fff"></path><path d="M76.76,179.4c1.93,2.73,8.43,6.46,8.43,6.47s1.16-5,1.2-5.36c.37-3.79-1.14-11.34-5-13a5.05,5.05,0,0,0-6.75,3.31C73.68,173.65,75.12,177.07,76.76,179.4Z" style="fill:#fff"></path><path d="M67.74,199.3c2.48,2,9.21,3.85,9.74,4A90.72,90.72,0,0,0,75.14,215c-.31,2.29-.56,4.62-.78,6.95-.06-1.08-.12-2-.14-2.18-.64-3.75-4.09-10.64-8.31-11.24a5,5,0,0,0-5.63,5c-.13,3,2.17,5.93,4.37,7.73s7.93,3.49,9.44,3.91c-.07.9-.16,1.79-.23,2.69-.34,4.3-.66,8.59-1.1,12.79-.15,1.48-.36,2.93-.56,4.39-.06-1-.11-1.77-.13-1.89-.64-3.76-4.09-10.64-8.32-11.25a5.05,5.05,0,0,0-5.62,5c-.13,3,2.17,5.93,4.36,7.74s7.38,3.32,9.18,3.83c-.25,1.48-.5,3-.81,4.39-.24,1-.4,1.92-.69,2.88s-.53,1.9-.79,2.84c-.57,1.78-1.14,3.63-1.74,5.36-.41,1.21-.82,2.35-1.23,3.5.17-1.47.44-4.36.44-4.61-.07-3.81-2.43-11.13-6.52-12.37A5,5,0,0,0,54,254.48c-.58,3,1.24,6.19,3.14,8.31,2.09,2.33,8.2,5,9,5.39-.69,1.9-1.37,3.74-2,5.47-1.4,3.62-2.74,6.83-3.92,9.56l2.38,1.44c1.18-2.86,2.52-6.27,3.91-10.11.71-1.93,1.42-4,2.13-6.14a55.31,55.31,0,0,0,6.42.67c.64,3.16,4,8.42,4.44,9.1-1.63,1.21-3.21,2.37-4.73,3.44-3,2.11-5.7,3.94-8.1,5.51l2.58,1.56c2.12-1.47,4.47-3.15,7-5,1.65-1.22,3.39-2.56,5.17-4,.6.56,5.53,5.1,8.51,6.09,2.7.9,6.39,1.3,8.87-.4A5.06,5.06,0,0,0,100,278c-2.76-3.26-10.42-2.52-13.94-1.07-.21.09-2.36,1.27-3.71,2,.72-.58,1.43-1.12,2.17-1.72,1.46-1.17,2.89-2.38,4.43-3.68l2.18-2c.74-.65,1.45-1.42,2.18-2.14,1.67-1.69,3.27-3.49,4.85-5.33,1,1.28,4.75,5.77,7.3,7.07s6.12,2.25,8.83.95A5.06,5.06,0,0,0,116.6,265c-2.23-3.64-9.92-4.07-13.62-3.17-.23.06-2.82,1-4.23,1.55.94-1.12,1.89-2.23,2.8-3.39,2.64-3.34,5.21-6.82,7.79-10.27.79-1.06,1.58-2.1,2.38-3.15.36.46,4.67,5.89,7.52,7.35,2.53,1.3,6.12,2.25,8.83.94a5,5,0,0,0,2.34-7.14c-2.23-3.64-9.92-4.07-13.62-3.17-.28.07-4,1.43-4.93,1.83,1.76-2.31,3.53-4.6,5.36-6.78a90.56,90.56,0,0,1,7.94-8.37c.17.22,4.64,5.91,7.56,7.4,2.53,1.3,6.12,2.25,8.83.94a5,5,0,0,0,2.34-7.14c-2.23-3.64-9.92-4.07-13.62-3.17-.24.06-3.08,1.1-4.41,1.62l-.13-.21a66.62,66.62,0,0,1,9.37-6.84c1.81-1.12,3.61-2.09,5.38-3,.72,1.14,4.09,6.34,6.57,8s5.83,2.91,8.67,1.91a5,5,0,0,0,3.11-6.84c-1.82-3.86-9.41-5.14-13.19-4.65-.2,0-2.26.53-3.76.91.81-.39,1.63-.82,2.41-1.18,2.92-1.38,5.68-2.46,8.13-3.39,1.39-.53,2.67-1,3.86-1.37,1.3.75,6.56,3.72,9.46,4s6.52-.11,8.58-2.31a5.06,5.06,0,0,0-.39-7.51c-3.4-2.58-10.72-.22-13.85,2-.27.19-4.16,3.61-4.09,3.65l.07,0c-1.15.36-2.39.77-3.74,1.24-2.47.88-5.26,1.9-8.22,3.22a88.12,88.12,0,0,0-9.35,4.71,66.11,66.11,0,0,0-9.61,6.69l-.11.1c.67-1.06,2.43-4.08,2.54-4.33,1.54-3.49,2.46-11.13-.73-14a5,5,0,0,0-7.44,1c-1.77,2.45-1.46,6.15-.62,8.87.94,3.07,5.55,8.28,5.92,8.69a89.65,89.65,0,0,0-8.4,8.47c-1.54,1.74-3,3.54-4.49,5.37.54-.93,1-1.77,1.08-1.9,1.54-3.48,2.46-11.13-.73-14a5,5,0,0,0-7.44,1.05c-1.77,2.44-1.46,6.14-.63,8.86s4.69,7.28,5.73,8.47c-.56.7-1.12,1.4-1.67,2.11-2.66,3.4-5.29,6.81-8,10.07-1,1.14-1.92,2.24-2.89,3.34.48-.83.88-1.53.93-1.64,1.54-3.49,2.46-11.13-.73-14a5.05,5.05,0,0,0-7.44,1c-1.77,2.44-1.46,6.14-.62,8.86s4.32,6.84,5.54,8.26c-1,1.09-2.06,2.19-3.1,3.21-.73.68-1.39,1.38-2.16,2l-2.23,1.94c-1.46,1.17-3,2.4-4.41,3.51-1,.78-2,1.5-3,2.24,1-1.14,2.78-3.39,2.91-3.6a19.65,19.65,0,0,0,2.69-9.52,6.33,6.33,0,0,0,.52-1,5.05,5.05,0,0,0-3.07-6.86c-4.09-1.2-10.08,3.64-12.22,6.8-.12.19-1.27,2.36-2,3.74.29-.87.58-1.72.86-2.62.58-1.79,1.1-3.59,1.67-5.52l.73-2.86c.26-.94.42-2,.64-3,.45-2.33.8-4.71,1.1-7.12,1.57.49,7.15,2.19,10,1.87s6.34-1.5,7.89-4.09a5,5,0,0,0-2-7.24c-3.86-1.81-10.51,2.07-13.1,4.87-.17.17-1.8,2.38-2.67,3.62.16-1.45.34-2.9.46-4.37.36-4.25.58-8.56.83-12.86.07-1.32.16-2.63.25-4,.55.19,7.14,2.34,10.32,2,2.83-.31,6.35-1.5,7.89-4.09a5.05,5.05,0,0,0-2-7.25c-3.87-1.8-10.52,2.08-13.11,4.87-.19.21-2.54,3.4-3.1,4.24.19-2.89.41-5.77.73-8.6a88.81,88.81,0,0,1,2-11.36c.26.08,7.12,2.36,10.38,2,2.83-.31,6.35-1.5,7.89-4.09a5.05,5.05,0,0,0-2-7.25c-3.87-1.8-10.52,2.08-13.11,4.87-.17.19-2,2.62-2.79,3.79l-.22-.1a65.34,65.34,0,0,1,4-10.88c.89-1.93,1.85-3.73,2.83-5.47,1.23.56,6.91,3,9.88,3s6.47-.8,8.29-3.2a5.05,5.05,0,0,0-1.19-7.42c-3.64-2.22-10.68.9-13.56,3.4-.16.13-1.6,1.69-2.63,2.83.45-.77.9-1.58,1.35-2.31,1.68-2.76,3.38-5.18,4.91-7.32.88-1.2,1.69-2.28,2.47-3.27,1.5-.09,7.52-.52,10.11-1.86s5.38-3.69,5.88-6.66a5,5,0,0,0-4.47-6c-4.25-.29-9.06,5.73-10.47,9.27-.12.31-1.47,5.31-1.4,5.31h.09c-.76,1-1.57,2-2.43,3.1-1.58,2.1-3.34,4.49-5.09,7.23a90.4,90.4,0,0,0-5.2,9.08,65.72,65.72,0,0,0-4.32,10.89l0,.13c0-1.25-.23-4.74-.27-5-.64-3.75-4.09-10.64-8.32-11.24a5.05,5.05,0,0,0-5.63,5C63.25,194.58,65.55,197.49,67.74,199.3Z" style="fill:#fff"></path><path d="M76.76,179.4c1.93,2.73,8.43,6.46,8.43,6.47s1.16-5,1.2-5.36c.37-3.79-1.14-11.34-5-13a5.05,5.05,0,0,0-6.75,3.31C73.68,173.65,75.12,177.07,76.76,179.4Z" style="fill:#fff;opacity:0.30000000000000004"></path><path d="M140.74,220c0,.06,3.75-3.56,3.95-3.81,2.41-3,5.31-10.09,3-13.67a5.05,5.05,0,0,0-7.46-.95c-2.35,1.89-3,5.54-2.94,8.38C137.38,213.33,140.74,220,140.74,220Z" style="fill:#fff;opacity:0.30000000000000004"></path><path d="M67.74,199.3c2.48,2,9.21,3.85,9.74,4A90.72,90.72,0,0,0,75.14,215c-.31,2.29-.56,4.62-.78,6.95-.06-1.08-.12-2-.14-2.18-.64-3.75-4.09-10.64-8.31-11.24a5,5,0,0,0-5.63,5c-.13,3,2.17,5.93,4.37,7.73s7.93,3.49,9.44,3.91c-.07.9-.16,1.79-.23,2.69-.34,4.3-.66,8.59-1.1,12.79-.15,1.48-.36,2.93-.56,4.39-.06-1-.11-1.77-.13-1.89-.64-3.76-4.09-10.64-8.32-11.25a5.05,5.05,0,0,0-5.62,5c-.13,3,2.17,5.93,4.36,7.74s7.38,3.32,9.18,3.83c-.25,1.48-.5,3-.81,4.39-.24,1-.4,1.92-.69,2.88s-.53,1.9-.79,2.84c-.57,1.78-1.14,3.63-1.74,5.36-.41,1.21-.82,2.35-1.23,3.5.17-1.47.44-4.36.44-4.61-.07-3.81-2.43-11.13-6.52-12.37A5,5,0,0,0,54,254.48c-.58,3,1.24,6.19,3.14,8.31,2.09,2.33,8.2,5,9,5.39-.69,1.9-1.37,3.74-2,5.47-1.4,3.62-2.74,6.83-3.92,9.56l2.38,1.44c1.18-2.86,2.52-6.27,3.91-10.11.71-1.93,1.42-4,2.13-6.14a55.31,55.31,0,0,0,6.42.67c.64,3.16,4,8.42,4.44,9.1-1.63,1.21-3.21,2.37-4.73,3.44-3,2.11-5.7,3.94-8.1,5.51l2.58,1.56c2.12-1.47,4.47-3.15,7-5,1.65-1.22,3.39-2.56,5.17-4,.6.56,5.53,5.1,8.51,6.09,2.7.9,6.39,1.3,8.87-.4A5.06,5.06,0,0,0,100,278c-2.76-3.26-10.42-2.52-13.94-1.07-.21.09-2.36,1.27-3.71,2,.72-.58,1.43-1.12,2.17-1.72,1.46-1.17,2.89-2.38,4.43-3.68l2.18-2c.74-.65,1.45-1.42,2.18-2.14,1.67-1.69,3.27-3.49,4.85-5.33,1,1.28,4.75,5.77,7.3,7.07s6.12,2.25,8.83.95A5.06,5.06,0,0,0,116.6,265c-2.23-3.64-9.92-4.07-13.62-3.17-.23.06-2.82,1-4.23,1.55.94-1.12,1.89-2.23,2.8-3.39,2.64-3.34,5.21-6.82,7.79-10.27.79-1.06,1.58-2.1,2.38-3.15.36.46,4.67,5.89,7.52,7.35,2.53,1.3,6.12,2.25,8.83.94a5,5,0,0,0,2.34-7.14c-2.23-3.64-9.92-4.07-13.62-3.17-.28.07-4,1.43-4.93,1.83,1.76-2.31,3.53-4.6,5.36-6.78a90.56,90.56,0,0,1,7.94-8.37c.17.22,4.64,5.91,7.56,7.4,2.53,1.3,6.12,2.25,8.83.94a5,5,0,0,0,2.34-7.14c-2.23-3.64-9.92-4.07-13.62-3.17-.24.06-3.08,1.1-4.41,1.62l-.13-.21a66.62,66.62,0,0,1,9.37-6.84c1.81-1.12,3.61-2.09,5.38-3,.72,1.14,4.09,6.34,6.57,8s5.83,2.91,8.67,1.91a5,5,0,0,0,3.11-6.84c-1.82-3.86-9.41-5.14-13.19-4.65-.2,0-2.26.53-3.76.91.81-.39,1.63-.82,2.41-1.18,2.92-1.38,5.68-2.46,8.13-3.39,1.39-.53,2.67-1,3.86-1.37,1.3.75,6.56,3.72,9.46,4s6.52-.11,8.58-2.31a5.06,5.06,0,0,0-.39-7.51c-3.4-2.58-10.72-.22-13.85,2-.27.19-4.16,3.61-4.09,3.65l.07,0c-1.15.36-2.39.77-3.74,1.24-2.47.88-5.26,1.9-8.22,3.22a88.12,88.12,0,0,0-9.35,4.71,66.11,66.11,0,0,0-9.61,6.69l-.11.1c.67-1.06,2.43-4.08,2.54-4.33,1.54-3.49,2.46-11.13-.73-14a5,5,0,0,0-7.44,1c-1.77,2.45-1.46,6.15-.62,8.87.94,3.07,5.55,8.28,5.92,8.69a89.65,89.65,0,0,0-8.4,8.47c-1.54,1.74-3,3.54-4.49,5.37.54-.93,1-1.77,1.08-1.9,1.54-3.48,2.46-11.13-.73-14a5,5,0,0,0-7.44,1.05c-1.77,2.44-1.46,6.14-.63,8.86s4.69,7.28,5.73,8.47c-.56.7-1.12,1.4-1.67,2.11-2.66,3.4-5.29,6.81-8,10.07-1,1.14-1.92,2.24-2.89,3.34.48-.83.88-1.53.93-1.64,1.54-3.49,2.46-11.13-.73-14a5.05,5.05,0,0,0-7.44,1c-1.77,2.44-1.46,6.14-.62,8.86s4.32,6.84,5.54,8.26c-1,1.09-2.06,2.19-3.1,3.21-.73.68-1.39,1.38-2.16,2l-2.23,1.94c-1.46,1.17-3,2.4-4.41,3.51-1,.78-2,1.5-3,2.24,1-1.14,2.78-3.39,2.91-3.6a19.65,19.65,0,0,0,2.69-9.52,6.33,6.33,0,0,0,.52-1,5.05,5.05,0,0,0-3.07-6.86c-4.09-1.2-10.08,3.64-12.22,6.8-.12.19-1.27,2.36-2,3.74.29-.87.58-1.72.86-2.62.58-1.79,1.1-3.59,1.67-5.52l.73-2.86c.26-.94.42-2,.64-3,.45-2.33.8-4.71,1.1-7.12,1.57.49,7.15,2.19,10,1.87s6.34-1.5,7.89-4.09a5,5,0,0,0-2-7.24c-3.86-1.81-10.51,2.07-13.1,4.87-.17.17-1.8,2.38-2.67,3.62.16-1.45.34-2.9.46-4.37.36-4.25.58-8.56.83-12.86.07-1.32.16-2.63.25-4,.55.19,7.14,2.34,10.32,2,2.83-.31,6.35-1.5,7.89-4.09a5.05,5.05,0,0,0-2-7.25c-3.87-1.8-10.52,2.08-13.11,4.87-.19.21-2.54,3.4-3.1,4.24.19-2.89.41-5.77.73-8.6a88.81,88.81,0,0,1,2-11.36c.26.08,7.12,2.36,10.38,2,2.83-.31,6.35-1.5,7.89-4.09a5.05,5.05,0,0,0-2-7.25c-3.87-1.8-10.52,2.08-13.11,4.87-.17.19-2,2.62-2.79,3.79l-.22-.1a65.34,65.34,0,0,1,4-10.88c.89-1.93,1.85-3.73,2.83-5.47,1.23.56,6.91,3,9.88,3s6.47-.8,8.29-3.2a5.05,5.05,0,0,0-1.19-7.42c-3.64-2.22-10.68.9-13.56,3.4-.16.13-1.6,1.69-2.63,2.83.45-.77.9-1.58,1.35-2.31,1.68-2.76,3.38-5.18,4.91-7.32.88-1.2,1.69-2.28,2.47-3.27,1.5-.09,7.52-.52,10.11-1.86s5.38-3.69,5.88-6.66a5,5,0,0,0-4.47-6c-4.25-.29-9.06,5.73-10.47,9.27-.12.31-1.47,5.31-1.4,5.31h.09c-.76,1-1.57,2-2.43,3.1-1.58,2.1-3.34,4.49-5.09,7.23a90.4,90.4,0,0,0-5.2,9.08,65.72,65.72,0,0,0-4.32,10.89l0,.13c0-1.25-.23-4.74-.27-5-.64-3.75-4.09-10.64-8.32-11.24a5.05,5.05,0,0,0-5.63,5C63.25,194.58,65.55,197.49,67.74,199.3Z" style="fill:#fff;opacity:0.30000000000000004"></path><path d="M372.88,217.33c0,.07-3.75-3.56-3.95-3.81-2.41-3-5.31-10.09-3-13.66a5.05,5.05,0,0,1,7.46-1c2.35,1.89,3,5.54,2.94,8.39C376.24,210.63,372.88,217.32,372.88,217.33Z" style="fill:#fff"></path><path d="M436.86,176.69c-1.93,2.73-8.43,6.47-8.43,6.47s-1.16-5-1.2-5.36c-.37-3.79,1.14-11.34,5-13a5.06,5.06,0,0,1,6.75,3.32C439.94,171,438.5,174.37,436.86,176.69Z" style="fill:#fff"></path><path d="M445.88,196.6c-2.48,2-9.21,3.84-9.74,4a90.72,90.72,0,0,1,2.34,11.7c.31,2.3.56,4.62.78,7,.06-1.08.12-2.05.14-2.18.64-3.76,4.09-10.64,8.31-11.25a5.05,5.05,0,0,1,5.63,5c.13,3-2.17,5.93-4.36,7.74s-7.94,3.49-9.45,3.9c.07.9.16,1.79.23,2.69.34,4.3.66,8.59,1.1,12.79.15,1.48.36,2.94.56,4.39.06-1,.11-1.77.13-1.89.64-3.75,4.09-10.64,8.32-11.24a5.05,5.05,0,0,1,5.63,5c.12,3-2.18,5.92-4.37,7.73s-7.38,3.33-9.18,3.83c.25,1.48.5,3,.81,4.39.24,1,.4,1.92.69,2.88s.53,1.9.79,2.84c.57,1.79,1.14,3.63,1.74,5.36.41,1.21.82,2.35,1.23,3.5-.17-1.47-.44-4.36-.44-4.6.07-3.81,2.43-11.14,6.52-12.38a5,5,0,0,1,6.31,4.07c.58,3-1.24,6.19-3.14,8.31-2.09,2.34-8.2,5.06-9,5.39.69,1.9,1.37,3.75,2.05,5.48,1.4,3.61,2.74,6.82,3.92,9.55L451.08,282c-1.18-2.87-2.52-6.27-3.91-10.12-.7-1.92-1.42-4-2.13-6.14a54.49,54.49,0,0,1-6.42.68c-.64,3.15-4,8.42-4.44,9.09,1.63,1.21,3.22,2.37,4.73,3.44,3,2.11,5.7,4,8.1,5.51L444.43,286c-2.12-1.47-4.47-3.14-7-5-1.65-1.22-3.39-2.56-5.17-3.95-.6.56-5.53,5.11-8.51,6.1-2.7.9-6.39,1.3-8.87-.41a5,5,0,0,1-1.23-7.41c2.76-3.26,10.42-2.53,13.94-1.07.21.08,2.36,1.26,3.71,2-.72-.57-1.43-1.12-2.17-1.72-1.46-1.17-2.89-2.38-4.43-3.68l-2.18-2c-.74-.64-1.45-1.42-2.18-2.13-1.67-1.7-3.27-3.49-4.85-5.34-1,1.28-4.75,5.77-7.3,7.08s-6.12,2.25-8.83.94a5,5,0,0,1-2.34-7.14c2.23-3.64,9.92-4.08,13.62-3.17.23,0,2.82,1,4.23,1.54-.94-1.11-1.89-2.22-2.8-3.38-2.64-3.35-5.21-6.82-7.79-10.27-.79-1.06-1.58-2.11-2.38-3.16-.36.46-4.67,5.89-7.52,7.36-2.53,1.3-6.12,2.25-8.83.94a5.05,5.05,0,0,1-2.34-7.15c2.23-3.63,9.92-4.07,13.62-3.17.28.07,4,1.44,4.93,1.83-1.76-2.31-3.53-4.59-5.36-6.77a89.31,89.31,0,0,0-7.94-8.37c-.17.21-4.64,5.9-7.56,7.4-2.53,1.3-6.12,2.25-8.83.94a5,5,0,0,1-2.34-7.14c2.23-3.64,9.92-4.08,13.62-3.18.25.06,3.08,1.1,4.41,1.63l.13-.21a64,64,0,0,0-9.37-6.84c-1.81-1.12-3.61-2.09-5.38-3-.72,1.14-4.09,6.34-6.57,8s-5.83,2.91-8.67,1.9a5,5,0,0,1-3.11-6.84c1.82-3.86,9.41-5.14,13.19-4.65.2,0,2.26.53,3.76.92-.81-.4-1.63-.82-2.41-1.19-2.92-1.37-5.68-2.45-8.13-3.39-1.39-.52-2.67-1-3.86-1.37-1.3.75-6.56,3.72-9.46,4s-6.52-.11-8.58-2.31a5,5,0,0,1,.39-7.5c3.4-2.59,10.72-.23,13.85,1.95.27.19,4.16,3.62,4.09,3.66l-.07,0c1.15.37,2.39.77,3.74,1.24,2.47.89,5.26,1.91,8.22,3.23a89,89,0,0,1,9.36,4.7,65.89,65.89,0,0,1,9.6,6.7l.11.09c-.67-1.06-2.43-4.08-2.54-4.32-1.54-3.49-2.46-11.13.73-14a5.05,5.05,0,0,1,7.44,1.05c1.77,2.44,1.46,6.14.63,8.86-1,3.07-5.56,8.28-5.93,8.7a89.62,89.62,0,0,1,8.41,8.46c1.53,1.75,3,3.55,4.48,5.38-.54-.94-1-1.78-1.08-1.9-1.54-3.49-2.46-11.13.73-14a5,5,0,0,1,7.44,1c1.77,2.44,1.46,6.14.63,8.86s-4.69,7.29-5.73,8.47c.56.71,1.12,1.41,1.67,2.12,2.66,3.4,5.29,6.8,8,10.06.95,1.15,1.92,2.25,2.89,3.35-.48-.83-.88-1.54-.93-1.65-1.54-3.49-2.46-11.13.73-14a5,5,0,0,1,7.44,1c1.77,2.45,1.46,6.14.62,8.87s-4.31,6.84-5.54,8.25c1,1.1,2.06,2.2,3.11,3.22.73.67,1.38,1.38,2.15,2l2.23,1.93c1.46,1.18,3,2.4,4.41,3.51,1,.78,2,1.51,3,2.24-1-1.13-2.78-3.39-2.91-3.6a19.62,19.62,0,0,1-2.69-9.52,6.23,6.23,0,0,1-.52-1,5.06,5.06,0,0,1,3.07-6.87c4.1-1.19,10.08,3.65,12.22,6.8.13.19,1.27,2.36,2,3.75-.29-.88-.58-1.73-.86-2.63-.58-1.79-1.1-3.58-1.67-5.52-.24-.94-.48-1.89-.73-2.85s-.42-2-.64-3c-.45-2.33-.8-4.71-1.1-7.12-1.57.5-7.15,2.19-10,1.88s-6.34-1.5-7.89-4.09a5.06,5.06,0,0,1,2-7.25c3.86-1.8,10.51,2.07,13.11,4.87.16.17,1.79,2.39,2.66,3.62-.16-1.45-.34-2.89-.46-4.37-.36-4.25-.58-8.56-.83-12.86-.07-1.32-.16-2.63-.25-3.94-.55.18-7.14,2.34-10.32,2-2.83-.31-6.35-1.5-7.89-4.08a5,5,0,0,1,2-7.25c3.87-1.8,10.52,2.07,13.11,4.87.19.21,2.54,3.4,3.1,4.24-.19-2.89-.41-5.78-.73-8.61a88.81,88.81,0,0,0-2-11.36c-.26.09-7.12,2.37-10.38,2-2.83-.32-6.35-1.5-7.89-4.09a5,5,0,0,1,2-7.25c3.87-1.8,10.52,2.07,13.11,4.87.17.18,2,2.61,2.79,3.79l.22-.11a65.23,65.23,0,0,0-4.05-10.87c-.89-1.94-1.85-3.74-2.83-5.47-1.23.55-6.91,3-9.88,3s-6.47-.79-8.29-3.2a5.05,5.05,0,0,1,1.19-7.42c3.64-2.22,10.68.91,13.56,3.4.16.14,1.6,1.69,2.63,2.84-.45-.78-.9-1.58-1.35-2.32-1.68-2.76-3.38-5.18-4.91-7.31-.87-1.21-1.69-2.28-2.47-3.28-1.5-.08-7.52-.51-10.11-1.86s-5.38-3.68-5.88-6.65a5.05,5.05,0,0,1,4.47-6.05c4.26-.28,9.06,5.73,10.47,9.27.12.31,1.47,5.31,1.4,5.31H419c.76.94,1.57,2,2.43,3.09,1.58,2.11,3.34,4.5,5.09,7.23a91.53,91.53,0,0,1,5.2,9.08A66.07,66.07,0,0,1,436,200l0,.14c0-1.25.23-4.75.27-5,.64-3.76,4.09-10.64,8.32-11.25a5.06,5.06,0,0,1,5.63,5C450.37,191.87,448.08,194.79,445.88,196.6Z" style="fill:#fff"></path><path d="M436.86,176.69c-1.93,2.73-8.43,6.47-8.43,6.47s-1.16-5-1.2-5.36c-.37-3.79,1.14-11.34,5-13a5.06,5.06,0,0,1,6.75,3.32C439.94,171,438.5,174.37,436.86,176.69Z" style="fill:#fff;opacity:0.30000000000000004"></path><path d="M372.88,217.33c0,.07-3.75-3.56-3.95-3.81-2.41-3-5.31-10.09-3-13.66a5.05,5.05,0,0,1,7.46-1c2.35,1.89,3,5.54,2.94,8.39C376.24,210.63,372.88,217.32,372.88,217.33Z" style="fill:#fff;opacity:0.30000000000000004"></path><path d="M445.88,196.6c-2.48,2-9.21,3.84-9.74,4a90.72,90.72,0,0,1,2.34,11.7c.31,2.3.56,4.62.78,7,.06-1.08.12-2.05.14-2.18.64-3.76,4.09-10.64,8.31-11.25a5.05,5.05,0,0,1,5.63,5c.13,3-2.17,5.93-4.36,7.74s-7.94,3.49-9.45,3.9c.07.9.16,1.79.23,2.69.34,4.3.66,8.59,1.1,12.79.15,1.48.36,2.94.56,4.39.06-1,.11-1.77.13-1.89.64-3.75,4.09-10.64,8.32-11.24a5.05,5.05,0,0,1,5.63,5c.12,3-2.18,5.92-4.37,7.73s-7.38,3.33-9.18,3.83c.25,1.48.5,3,.81,4.39.24,1,.4,1.92.69,2.88s.53,1.9.79,2.84c.57,1.79,1.14,3.63,1.74,5.36.41,1.21.82,2.35,1.23,3.5-.17-1.47-.44-4.36-.44-4.6.07-3.81,2.43-11.14,6.52-12.38a5,5,0,0,1,6.31,4.07c.58,3-1.24,6.19-3.14,8.31-2.09,2.34-8.2,5.06-9,5.39.69,1.9,1.37,3.75,2.05,5.48,1.4,3.61,2.74,6.82,3.92,9.55L451.08,282c-1.18-2.87-2.52-6.27-3.91-10.12-.7-1.92-1.42-4-2.13-6.14a54.49,54.49,0,0,1-6.42.68c-.64,3.15-4,8.42-4.44,9.09,1.63,1.21,3.22,2.37,4.73,3.44,3,2.11,5.7,4,8.1,5.51L444.43,286c-2.12-1.47-4.47-3.14-7-5-1.65-1.22-3.39-2.56-5.17-3.95-.6.56-5.53,5.11-8.51,6.1-2.7.9-6.39,1.3-8.87-.41a5,5,0,0,1-1.23-7.41c2.76-3.26,10.42-2.53,13.94-1.07.21.08,2.36,1.26,3.71,2-.72-.57-1.43-1.12-2.17-1.72-1.46-1.17-2.89-2.38-4.43-3.68l-2.18-2c-.74-.64-1.45-1.42-2.18-2.13-1.67-1.7-3.27-3.49-4.85-5.34-1,1.28-4.75,5.77-7.3,7.08s-6.12,2.25-8.83.94a5,5,0,0,1-2.34-7.14c2.23-3.64,9.92-4.08,13.62-3.17.23,0,2.82,1,4.23,1.54-.94-1.11-1.89-2.22-2.8-3.38-2.64-3.35-5.21-6.82-7.79-10.27-.79-1.06-1.58-2.11-2.38-3.16-.36.46-4.67,5.89-7.52,7.36-2.53,1.3-6.12,2.25-8.83.94a5.05,5.05,0,0,1-2.34-7.15c2.23-3.63,9.92-4.07,13.62-3.17.28.07,4,1.44,4.93,1.83-1.76-2.31-3.53-4.59-5.36-6.77a89.31,89.31,0,0,0-7.94-8.37c-.17.21-4.64,5.9-7.56,7.4-2.53,1.3-6.12,2.25-8.83.94a5,5,0,0,1-2.34-7.14c2.23-3.64,9.92-4.08,13.62-3.18.25.06,3.08,1.1,4.41,1.63l.13-.21a64,64,0,0,0-9.37-6.84c-1.81-1.12-3.61-2.09-5.38-3-.72,1.14-4.09,6.34-6.57,8s-5.83,2.91-8.67,1.9a5,5,0,0,1-3.11-6.84c1.82-3.86,9.41-5.14,13.19-4.65.2,0,2.26.53,3.76.92-.81-.4-1.63-.82-2.41-1.19-2.92-1.37-5.68-2.45-8.13-3.39-1.39-.52-2.67-1-3.86-1.37-1.3.75-6.56,3.72-9.46,4s-6.52-.11-8.58-2.31a5,5,0,0,1,.39-7.5c3.4-2.59,10.72-.23,13.85,1.95.27.19,4.16,3.62,4.09,3.66l-.07,0c1.15.37,2.39.77,3.74,1.24,2.47.89,5.26,1.91,8.22,3.23a89,89,0,0,1,9.36,4.7,65.89,65.89,0,0,1,9.6,6.7l.11.09c-.67-1.06-2.43-4.08-2.54-4.32-1.54-3.49-2.46-11.13.73-14a5.05,5.05,0,0,1,7.44,1.05c1.77,2.44,1.46,6.14.63,8.86-1,3.07-5.56,8.28-5.93,8.7a89.62,89.62,0,0,1,8.41,8.46c1.53,1.75,3,3.55,4.48,5.38-.54-.94-1-1.78-1.08-1.9-1.54-3.49-2.46-11.13.73-14a5,5,0,0,1,7.44,1c1.77,2.44,1.46,6.14.63,8.86s-4.69,7.29-5.73,8.47c.56.71,1.12,1.41,1.67,2.12,2.66,3.4,5.29,6.8,8,10.06.95,1.15,1.92,2.25,2.89,3.35-.48-.83-.88-1.54-.93-1.65-1.54-3.49-2.46-11.13.73-14a5,5,0,0,1,7.44,1c1.77,2.45,1.46,6.14.62,8.87s-4.31,6.84-5.54,8.25c1,1.1,2.06,2.2,3.11,3.22.73.67,1.38,1.38,2.15,2l2.23,1.93c1.46,1.18,3,2.4,4.41,3.51,1,.78,2,1.51,3,2.24-1-1.13-2.78-3.39-2.91-3.6a19.62,19.62,0,0,1-2.69-9.52,6.23,6.23,0,0,1-.52-1,5.06,5.06,0,0,1,3.07-6.87c4.1-1.19,10.08,3.65,12.22,6.8.13.19,1.27,2.36,2,3.75-.29-.88-.58-1.73-.86-2.63-.58-1.79-1.1-3.58-1.67-5.52-.24-.94-.48-1.89-.73-2.85s-.42-2-.64-3c-.45-2.33-.8-4.71-1.1-7.12-1.57.5-7.15,2.19-10,1.88s-6.34-1.5-7.89-4.09a5.06,5.06,0,0,1,2-7.25c3.86-1.8,10.51,2.07,13.11,4.87.16.17,1.79,2.39,2.66,3.62-.16-1.45-.34-2.89-.46-4.37-.36-4.25-.58-8.56-.83-12.86-.07-1.32-.16-2.63-.25-3.94-.55.18-7.14,2.34-10.32,2-2.83-.31-6.35-1.5-7.89-4.08a5,5,0,0,1,2-7.25c3.87-1.8,10.52,2.07,13.11,4.87.19.21,2.54,3.4,3.1,4.24-.19-2.89-.41-5.78-.73-8.61a88.81,88.81,0,0,0-2-11.36c-.26.09-7.12,2.37-10.38,2-2.83-.32-6.35-1.5-7.89-4.09a5,5,0,0,1,2-7.25c3.87-1.8,10.52,2.07,13.11,4.87.17.18,2,2.61,2.79,3.79l.22-.11a65.23,65.23,0,0,0-4.05-10.87c-.89-1.94-1.85-3.74-2.83-5.47-1.23.55-6.91,3-9.88,3s-6.47-.79-8.29-3.2a5.05,5.05,0,0,1,1.19-7.42c3.64-2.22,10.68.91,13.56,3.4.16.14,1.6,1.69,2.63,2.84-.45-.78-.9-1.58-1.35-2.32-1.68-2.76-3.38-5.18-4.91-7.31-.87-1.21-1.69-2.28-2.47-3.28-1.5-.08-7.52-.51-10.11-1.86s-5.38-3.68-5.88-6.65a5.05,5.05,0,0,1,4.47-6.05c4.26-.28,9.06,5.73,10.47,9.27.12.31,1.47,5.31,1.4,5.31H419c.76.94,1.57,2,2.43,3.09,1.58,2.11,3.34,4.5,5.09,7.23a91.53,91.53,0,0,1,5.2,9.08A66.07,66.07,0,0,1,436,200l0,.14c0-1.25.23-4.75.27-5,.64-3.76,4.09-10.64,8.32-11.25a5.06,5.06,0,0,1,5.63,5C450.37,191.87,448.08,194.79,445.88,196.6Z" style="fill:#fff;opacity:0.30000000000000004"></path><path d="M332.57,384.08c0,.05-3-2.87-3.19-3.08-1.94-2.39-4.29-8.14-2.41-11a4.08,4.08,0,0,1,6-.77c1.89,1.53,2.44,4.47,2.37,6.77C335.28,378.66,332.57,384.07,332.57,384.08Z" style="fill:#fff"></path><path d="M384.21,351.28c-1.56,2.2-6.8,5.21-6.8,5.22s-.94-4.06-1-4.33c-.3-3.06.92-9.15,4.08-10.53a4.08,4.08,0,0,1,5.44,2.68C386.7,346.64,385.54,349.4,384.21,351.28Z" style="fill:#fff"></path><path d="M391.49,367.34c-2,1.65-7.43,3.1-7.86,3.22a71,71,0,0,1,1.89,9.44c.25,1.86.45,3.73.63,5.62.05-.88.1-1.66.11-1.76.52-3,3.31-8.59,6.72-9.08a4.08,4.08,0,0,1,4.54,4c.1,2.43-1.75,4.78-3.53,6.24s-6.4,2.82-7.62,3.16c.06.72.13,1.44.18,2.16.28,3.47.53,6.94.89,10.33.13,1.2.29,2.37.46,3.54,0-.77.08-1.42.1-1.52.52-3,3.3-8.59,6.71-9.08a4.07,4.07,0,0,1,4.54,4c.11,2.43-1.75,4.78-3.52,6.24s-6,2.69-7.41,3.09c.21,1.2.41,2.4.66,3.55.19.78.32,1.55.55,2.32s.43,1.54.64,2.29c.46,1.45.92,2.94,1.41,4.33.33,1,.66,1.9,1,2.83-.14-1.19-.36-3.52-.36-3.72.06-3.08,2-9,5.26-10a4.08,4.08,0,0,1,5.1,3.29c.47,2.38-1,5-2.54,6.7-1.68,1.89-6.62,4.08-7.24,4.35.56,1.54,1.11,3,1.66,4.42,1.13,2.92,2.21,5.51,3.17,7.72l-1.93,1.16c-.95-2.31-2-5.06-3.15-8.16-.57-1.56-1.15-3.23-1.73-5a44,44,0,0,1-5.17.55c-.52,2.54-3.23,6.79-3.59,7.34,1.31,1,2.6,1.91,3.82,2.77,2.4,1.71,4.6,3.19,6.53,4.45l-2.07,1.26c-1.72-1.19-3.62-2.54-5.66-4.05-1.33-1-2.74-2.07-4.17-3.19-.48.45-4.46,4.12-6.86,4.92-2.18.73-5.16,1-7.17-.33a4.08,4.08,0,0,1-1-6c2.23-2.63,8.41-2,11.25-.87.17.07,1.91,1,3,1.65L378,430.24c-1.18-.94-2.34-1.92-3.58-3l-1.76-1.6c-.6-.52-1.17-1.15-1.76-1.72-1.35-1.37-2.64-2.82-3.92-4.31-.83,1-3.83,4.66-5.88,5.71s-4.94,1.82-7.14.76a4.07,4.07,0,0,1-1.88-5.76c1.8-2.94,8-3.29,11-2.56.19,0,2.27.81,3.41,1.25-.76-.9-1.52-1.8-2.26-2.74-2.13-2.7-4.2-5.5-6.28-8.29L356,405.47c-.3.37-3.77,4.75-6.07,5.93-2.05,1.05-4.94,1.82-7.13.76a4.07,4.07,0,0,1-1.89-5.76c1.8-2.94,8-3.29,11-2.56.23.05,3.23,1.16,4,1.47-1.42-1.86-2.84-3.7-4.33-5.46a71.2,71.2,0,0,0-6.4-6.76c-.14.17-3.75,4.76-6.1,6-2.05,1.05-4.94,1.82-7.13.76a4.07,4.07,0,0,1-1.89-5.76c1.8-2.94,8-3.29,11-2.56.2.05,2.49.88,3.56,1.31l.11-.17a52.54,52.54,0,0,0-7.57-5.52c-1.46-.91-2.91-1.69-4.34-2.42-.58.92-3.3,5.12-5.3,6.44s-4.71,2.35-7,1.54a4.08,4.08,0,0,1-2.51-5.53c1.47-3.11,7.59-4.14,10.64-3.75.17,0,1.83.43,3,.74-.65-.32-1.31-.66-1.94-1-2.36-1.11-4.59-2-6.56-2.74-1.13-.42-2.16-.78-3.13-1.1-1,.61-5.29,3-7.63,3.25s-5.26-.09-6.93-1.86a4.09,4.09,0,0,1,.32-6.06c2.74-2.09,8.65-.18,11.18,1.58.22.15,3.36,2.92,3.3,2.95l-.06,0c.94.3,1.94.63,3,1,2,.72,4.25,1.54,6.64,2.61a72.16,72.16,0,0,1,7.55,3.8,53.25,53.25,0,0,1,7.76,5.4l.08.08c-.54-.86-2-3.29-2.05-3.49-1.24-2.82-2-9,.59-11.28a4.08,4.08,0,0,1,6,.85c1.42,2,1.17,5,.5,7.15-.76,2.48-4.48,6.69-4.78,7a71.86,71.86,0,0,1,6.78,6.84c1.24,1.4,2.44,2.86,3.62,4.33-.44-.75-.83-1.43-.87-1.53-1.24-2.82-2-9,.59-11.27a4.08,4.08,0,0,1,6,.84c1.42,2,1.18,5,.5,7.16s-3.79,5.88-4.62,6.83l1.35,1.71c2.14,2.74,4.27,5.49,6.44,8.12.76.93,1.55,1.81,2.33,2.7-.39-.67-.71-1.23-.75-1.32-1.24-2.82-2-9,.59-11.28a4.08,4.08,0,0,1,6,.85c1.42,2,1.17,5,.5,7.15s-3.49,5.52-4.47,6.66c.83.89,1.66,1.78,2.5,2.6.59.55,1.12,1.12,1.74,1.63l1.8,1.56c1.18.95,2.39,1.94,3.56,2.84.81.63,1.6,1.21,2.39,1.8-.77-.91-2.25-2.73-2.35-2.9A15.76,15.76,0,0,1,377,420a4.24,4.24,0,0,1,2.05-6.34c3.31-1,8.14,2.94,9.87,5.49.1.15,1,1.9,1.59,3-.24-.71-.47-1.39-.7-2.12-.46-1.44-.88-2.89-1.34-4.45-.19-.76-.39-1.53-.59-2.31s-.34-1.6-.52-2.4c-.36-1.89-.65-3.81-.89-5.76-1.26.41-5.76,1.77-8.06,1.52s-5.12-1.21-6.36-3.3a4.07,4.07,0,0,1,1.6-5.85c3.12-1.46,8.49,1.67,10.58,3.93.13.14,1.45,1.93,2.16,2.92-.14-1.17-.28-2.33-.38-3.52-.28-3.43-.47-6.91-.66-10.38-.06-1.07-.14-2.13-.21-3.19-.44.15-5.76,1.89-8.33,1.61-2.28-.26-5.12-1.21-6.37-3.3a4.07,4.07,0,0,1,1.61-5.85c3.12-1.46,8.49,1.67,10.58,3.93.16.17,2.05,2.74,2.5,3.42-.15-2.34-.32-4.66-.59-6.95a70.44,70.44,0,0,0-1.62-9.17c-.2.07-5.75,1.91-8.38,1.62-2.28-.25-5.12-1.21-6.36-3.3a4.07,4.07,0,0,1,1.6-5.85c3.13-1.45,8.49,1.67,10.58,3.93.14.15,1.59,2.11,2.25,3.06l.18-.08a52,52,0,0,0-3.26-8.78c-.72-1.57-1.5-3-2.29-4.42-1,.45-5.57,2.45-8,2.45s-5.23-.64-6.69-2.58a4.07,4.07,0,0,1,.95-6c3-1.79,8.62.73,11,2.74.13.11,1.29,1.37,2.12,2.29-.36-.62-.73-1.28-1.09-1.87-1.35-2.22-2.73-4.18-4-5.9-.71-1-1.37-1.84-2-2.65-1.21-.07-6.08-.41-8.17-1.49s-4.34-3-4.74-5.38a4.08,4.08,0,0,1,3.6-4.88c3.44-.23,7.32,4.63,8.46,7.49.09.24,1.19,4.28,1.13,4.28h-.08c.62.76,1.27,1.58,2,2.5,1.27,1.69,2.7,3.62,4.1,5.83a72.8,72.8,0,0,1,4.2,7.33,53.31,53.31,0,0,1,3.49,8.79l0,.11c0-1,.18-3.83.21-4,.52-3,3.3-8.59,6.71-9.08a4.08,4.08,0,0,1,4.55,4C395.12,363.53,393.27,365.88,391.49,367.34Z" style="fill:#fff"></path><path d="M384.21,351.28c-1.56,2.2-6.8,5.21-6.8,5.22s-.94-4.06-1-4.33c-.3-3.06.92-9.15,4.08-10.53a4.08,4.08,0,0,1,5.44,2.68C386.7,346.64,385.54,349.4,384.21,351.28Z" style="fill:#fff;opacity:0.30000000000000004"></path><path d="M332.57,384.08c0,.05-3-2.87-3.19-3.08-1.94-2.39-4.29-8.14-2.41-11a4.08,4.08,0,0,1,6-.77c1.89,1.53,2.44,4.47,2.37,6.77C335.28,378.66,332.57,384.07,332.57,384.08Z" style="fill:#fff;opacity:0.30000000000000004"></path><path d="M391.49,367.34c-2,1.65-7.43,3.1-7.86,3.22a71,71,0,0,1,1.89,9.44c.25,1.86.45,3.73.63,5.62.05-.88.1-1.66.11-1.76.52-3,3.31-8.59,6.72-9.08a4.08,4.08,0,0,1,4.54,4c.1,2.43-1.75,4.78-3.53,6.24s-6.4,2.82-7.62,3.16c.06.72.13,1.44.18,2.16.28,3.47.53,6.94.89,10.33.13,1.2.29,2.37.46,3.54,0-.77.08-1.42.1-1.52.52-3,3.3-8.59,6.71-9.08a4.07,4.07,0,0,1,4.54,4c.11,2.43-1.75,4.78-3.52,6.24s-6,2.69-7.41,3.09c.21,1.2.41,2.4.66,3.55.19.78.32,1.55.55,2.32s.43,1.54.64,2.29c.46,1.45.92,2.94,1.41,4.33.33,1,.66,1.9,1,2.83-.14-1.19-.36-3.52-.36-3.72.06-3.08,2-9,5.26-10a4.08,4.08,0,0,1,5.1,3.29c.47,2.38-1,5-2.54,6.7-1.68,1.89-6.62,4.08-7.24,4.35.56,1.54,1.11,3,1.66,4.42,1.13,2.92,2.21,5.51,3.17,7.72l-1.93,1.16c-.95-2.31-2-5.06-3.15-8.16-.57-1.56-1.15-3.23-1.73-5a44,44,0,0,1-5.17.55c-.52,2.54-3.23,6.79-3.59,7.34,1.31,1,2.6,1.91,3.82,2.77,2.4,1.71,4.6,3.19,6.53,4.45l-2.07,1.26c-1.72-1.19-3.62-2.54-5.66-4.05-1.33-1-2.74-2.07-4.17-3.19-.48.45-4.46,4.12-6.86,4.92-2.18.73-5.16,1-7.17-.33a4.08,4.08,0,0,1-1-6c2.23-2.63,8.41-2,11.25-.87.17.07,1.91,1,3,1.65L378,430.24c-1.18-.94-2.34-1.92-3.58-3l-1.76-1.6c-.6-.52-1.17-1.15-1.76-1.72-1.35-1.37-2.64-2.82-3.92-4.31-.83,1-3.83,4.66-5.88,5.71s-4.94,1.82-7.14.76a4.07,4.07,0,0,1-1.88-5.76c1.8-2.94,8-3.29,11-2.56.19,0,2.27.81,3.41,1.25-.76-.9-1.52-1.8-2.26-2.74-2.13-2.7-4.2-5.5-6.28-8.29L356,405.47c-.3.37-3.77,4.75-6.07,5.93-2.05,1.05-4.94,1.82-7.13.76a4.07,4.07,0,0,1-1.89-5.76c1.8-2.94,8-3.29,11-2.56.23.05,3.23,1.16,4,1.47-1.42-1.86-2.84-3.7-4.33-5.46a71.2,71.2,0,0,0-6.4-6.76c-.14.17-3.75,4.76-6.1,6-2.05,1.05-4.94,1.82-7.13.76a4.07,4.07,0,0,1-1.89-5.76c1.8-2.94,8-3.29,11-2.56.2.05,2.49.88,3.56,1.31l.11-.17a52.54,52.54,0,0,0-7.57-5.52c-1.46-.91-2.91-1.69-4.34-2.42-.58.92-3.3,5.12-5.3,6.44s-4.71,2.35-7,1.54a4.08,4.08,0,0,1-2.51-5.53c1.47-3.11,7.59-4.14,10.64-3.75.17,0,1.83.43,3,.74-.65-.32-1.31-.66-1.94-1-2.36-1.11-4.59-2-6.56-2.74-1.13-.42-2.16-.78-3.13-1.1-1,.61-5.29,3-7.63,3.25s-5.26-.09-6.93-1.86a4.09,4.09,0,0,1,.32-6.06c2.74-2.09,8.65-.18,11.18,1.58.22.15,3.36,2.92,3.3,2.95l-.06,0c.94.3,1.94.63,3,1,2,.72,4.25,1.54,6.64,2.61a72.16,72.16,0,0,1,7.55,3.8,53.25,53.25,0,0,1,7.76,5.4l.08.08c-.54-.86-2-3.29-2.05-3.49-1.24-2.82-2-9,.59-11.28a4.08,4.08,0,0,1,6,.85c1.42,2,1.17,5,.5,7.15-.76,2.48-4.48,6.69-4.78,7a71.86,71.86,0,0,1,6.78,6.84c1.24,1.4,2.44,2.86,3.62,4.33-.44-.75-.83-1.43-.87-1.53-1.24-2.82-2-9,.59-11.27a4.08,4.08,0,0,1,6,.84c1.42,2,1.18,5,.5,7.16s-3.79,5.88-4.62,6.83l1.35,1.71c2.14,2.74,4.27,5.49,6.44,8.12.76.93,1.55,1.81,2.33,2.7-.39-.67-.71-1.23-.75-1.32-1.24-2.82-2-9,.59-11.28a4.08,4.08,0,0,1,6,.85c1.42,2,1.17,5,.5,7.15s-3.49,5.52-4.47,6.66c.83.89,1.66,1.78,2.5,2.6.59.55,1.12,1.12,1.74,1.63l1.8,1.56c1.18.95,2.39,1.94,3.56,2.84.81.63,1.6,1.21,2.39,1.8-.77-.91-2.25-2.73-2.35-2.9A15.76,15.76,0,0,1,377,420a4.24,4.24,0,0,1,2.05-6.34c3.31-1,8.14,2.94,9.87,5.49.1.15,1,1.9,1.59,3-.24-.71-.47-1.39-.7-2.12-.46-1.44-.88-2.89-1.34-4.45-.19-.76-.39-1.53-.59-2.31s-.34-1.6-.52-2.4c-.36-1.89-.65-3.81-.89-5.76-1.26.41-5.76,1.77-8.06,1.52s-5.12-1.21-6.36-3.3a4.07,4.07,0,0,1,1.6-5.85c3.12-1.46,8.49,1.67,10.58,3.93.13.14,1.45,1.93,2.16,2.92-.14-1.17-.28-2.33-.38-3.52-.28-3.43-.47-6.91-.66-10.38-.06-1.07-.14-2.13-.21-3.19-.44.15-5.76,1.89-8.33,1.61-2.28-.26-5.12-1.21-6.37-3.3a4.07,4.07,0,0,1,1.61-5.85c3.12-1.46,8.49,1.67,10.58,3.93.16.17,2.05,2.74,2.5,3.42-.15-2.34-.32-4.66-.59-6.95a70.44,70.44,0,0,0-1.62-9.17c-.2.07-5.75,1.91-8.38,1.62-2.28-.25-5.12-1.21-6.36-3.3a4.07,4.07,0,0,1,1.6-5.85c3.13-1.45,8.49,1.67,10.58,3.93.14.15,1.59,2.11,2.25,3.06l.18-.08a52,52,0,0,0-3.26-8.78c-.72-1.57-1.5-3-2.29-4.42-1,.45-5.57,2.45-8,2.45s-5.23-.64-6.69-2.58a4.07,4.07,0,0,1,.95-6c3-1.79,8.62.73,11,2.74.13.11,1.29,1.37,2.12,2.29-.36-.62-.73-1.28-1.09-1.87-1.35-2.22-2.73-4.18-4-5.9-.71-1-1.37-1.84-2-2.65-1.21-.07-6.08-.41-8.17-1.49s-4.34-3-4.74-5.38a4.08,4.08,0,0,1,3.6-4.88c3.44-.23,7.32,4.63,8.46,7.49.09.24,1.19,4.28,1.13,4.28h-.08c.62.76,1.27,1.58,2,2.5,1.27,1.69,2.7,3.62,4.1,5.83a72.8,72.8,0,0,1,4.2,7.33,53.31,53.31,0,0,1,3.49,8.79l0,.11c0-1,.18-3.83.21-4,.52-3,3.3-8.59,6.71-9.08a4.08,4.08,0,0,1,4.55,4C395.12,363.53,393.27,365.88,391.49,367.34Z" style="fill:#fff;opacity:0.30000000000000004"></path><path d="M172,384.08c0,.05,3-2.87,3.19-3.08,1.94-2.39,4.28-8.14,2.41-11a4.08,4.08,0,0,0-6-.77c-1.9,1.53-2.45,4.47-2.38,6.77C169.31,378.66,172,384.07,172,384.08Z" style="fill:#fff"></path><path d="M120.38,351.28c1.55,2.2,6.8,5.21,6.8,5.22s.94-4.06,1-4.33c.31-3.06-.91-9.15-4.07-10.53a4.09,4.09,0,0,0-5.45,2.68C117.88,346.64,119.05,349.4,120.38,351.28Z" style="fill:#fff"></path><path d="M113.1,367.34c2,1.65,7.42,3.1,7.86,3.22a71,71,0,0,0-1.89,9.44c-.26,1.86-.46,3.73-.63,5.62,0-.88-.1-1.66-.12-1.76-.51-3-3.3-8.59-6.71-9.08a4.08,4.08,0,0,0-4.54,4c-.1,2.43,1.75,4.78,3.52,6.24s6.41,2.82,7.63,3.16c-.06.72-.13,1.44-.18,2.16-.28,3.47-.54,6.94-.89,10.33-.13,1.2-.3,2.37-.46,3.54,0-.77-.09-1.42-.1-1.52-.52-3-3.3-8.59-6.71-9.08a4.08,4.08,0,0,0-4.55,4c-.1,2.43,1.76,4.78,3.53,6.24s6,2.69,7.4,3.09c-.2,1.2-.4,2.4-.65,3.55-.19.78-.32,1.55-.55,2.32s-.43,1.54-.64,2.29c-.46,1.45-.93,2.94-1.41,4.33-.33,1-.66,1.9-1,2.83.14-1.19.36-3.52.35-3.72-.05-3.08-2-9-5.25-10a4.07,4.07,0,0,0-5.1,3.29c-.47,2.38,1,5,2.54,6.7,1.68,1.89,6.62,4.08,7.23,4.35-.55,1.54-1.1,3-1.65,4.42-1.13,2.92-2.21,5.51-3.17,7.72l1.93,1.16c.95-2.31,2-5.06,3.15-8.16.57-1.56,1.15-3.23,1.72-5a44.25,44.25,0,0,0,5.18.55c.52,2.54,3.23,6.79,3.58,7.34-1.31,1-2.59,1.91-3.81,2.77-2.4,1.71-4.6,3.19-6.54,4.45l2.08,1.26c1.71-1.19,3.61-2.54,5.65-4.05,1.34-1,2.74-2.07,4.18-3.19.48.45,4.46,4.12,6.86,4.92,2.18.73,5.16,1,7.17-.33a4.08,4.08,0,0,0,1-6c-2.23-2.63-8.41-2-11.26-.87-.17.07-1.9,1-3,1.65.59-.47,1.16-.91,1.75-1.39,1.18-.94,2.33-1.92,3.58-3l1.76-1.6c.6-.52,1.17-1.15,1.76-1.72,1.34-1.37,2.64-2.82,3.92-4.31.83,1,3.83,4.66,5.88,5.71s4.94,1.82,7.13.76a4.07,4.07,0,0,0,1.89-5.76c-1.8-2.94-8-3.29-11-2.56-.19,0-2.28.81-3.41,1.25.75-.9,1.52-1.8,2.25-2.74,2.14-2.7,4.21-5.5,6.29-8.29l1.92-2.54c.29.37,3.77,4.75,6.07,5.93,2,1.05,4.94,1.82,7.13.76a4.07,4.07,0,0,0,1.89-5.76c-1.8-2.94-8-3.29-11-2.56-.22.05-3.22,1.16-4,1.47,1.41-1.86,2.84-3.7,4.32-5.46a71.28,71.28,0,0,1,6.41-6.76c.14.17,3.74,4.76,6.1,6,2,1.05,4.94,1.82,7.13.76a4.07,4.07,0,0,0,1.89-5.76c-1.8-2.94-8-3.29-11-2.56-.19.05-2.48.88-3.56,1.31a1,1,0,0,0-.1-.17,52.47,52.47,0,0,1,7.56-5.52c1.47-.91,2.92-1.69,4.35-2.42.58.92,3.3,5.12,5.3,6.44s4.71,2.35,7,1.54a4.08,4.08,0,0,0,2.51-5.53C185.15,384,179,383,176,383.4c-.16,0-1.83.43-3,.74.65-.32,1.31-.66,1.94-1,2.36-1.11,4.58-2,6.56-2.74,1.13-.42,2.16-.78,3.12-1.1,1.05.61,5.3,3,7.64,3.25s5.26-.09,6.92-1.86a4.07,4.07,0,0,0-.32-6.06c-2.74-2.09-8.65-.18-11.17,1.58-.22.15-3.36,2.92-3.31,2.95l.07,0c-.94.3-1.94.63-3,1-2,.72-4.25,1.54-6.63,2.61a71.2,71.2,0,0,0-7.55,3.8,53.25,53.25,0,0,0-7.76,5.4.6.6,0,0,0-.08.08c.54-.86,2-3.29,2-3.49,1.24-2.82,2-9-.59-11.28a4.08,4.08,0,0,0-6,.85c-1.43,2-1.18,5-.5,7.15.76,2.48,4.48,6.69,4.78,7a70.78,70.78,0,0,0-6.79,6.84c-1.23,1.4-2.43,2.86-3.62,4.33.44-.75.83-1.43.88-1.53,1.24-2.82,2-9-.59-11.27a4.08,4.08,0,0,0-6,.84c-1.43,2-1.18,5-.5,7.16s3.78,5.88,4.62,6.83c-.45.57-.91,1.14-1.35,1.71-2.15,2.74-4.27,5.49-6.44,8.12-.77.93-1.55,1.81-2.34,2.7.4-.67.72-1.23.76-1.32,1.24-2.82,2-9-.59-11.28a4.08,4.08,0,0,0-6,.85c-1.42,2-1.17,5-.5,7.15s3.49,5.52,4.47,6.66c-.83.89-1.66,1.78-2.5,2.6-.59.55-1.12,1.12-1.74,1.63L129,426c-1.18.95-2.39,1.94-3.56,2.84-.82.63-1.6,1.21-2.39,1.8.77-.91,2.24-2.73,2.35-2.9a15.76,15.76,0,0,0,2.17-7.69,5.52,5.52,0,0,0,.42-.8,4.08,4.08,0,0,0-2.48-5.54c-3.3-1-8.14,2.94-9.86,5.49-.1.15-1,1.9-1.59,3,.23-.71.47-1.39.7-2.12.46-1.44.88-2.89,1.34-4.45.19-.76.39-1.53.59-2.31s.34-1.6.51-2.4c.37-1.89.65-3.81.9-5.76,1.26.41,5.76,1.77,8.06,1.52s5.12-1.21,6.36-3.3a4.07,4.07,0,0,0-1.6-5.85c-3.13-1.46-8.5,1.67-10.59,3.93-.13.14-1.45,1.93-2.15,2.92.13-1.17.28-2.33.38-3.52.28-3.43.46-6.91.66-10.38.06-1.07.14-2.13.2-3.19.45.15,5.77,1.89,8.34,1.61,2.28-.26,5.12-1.21,6.36-3.3a4.07,4.07,0,0,0-1.6-5.85c-3.13-1.46-8.49,1.67-10.58,3.93-.16.17-2.06,2.74-2.5,3.42.15-2.34.32-4.66.58-6.95a72.17,72.17,0,0,1,1.62-9.17c.21.07,5.75,1.91,8.38,1.62,2.29-.25,5.13-1.21,6.37-3.3a4.08,4.08,0,0,0-1.61-5.85c-3.12-1.45-8.49,1.67-10.58,3.93-.13.15-1.58,2.11-2.25,3.06l-.17-.08a52,52,0,0,1,3.26-8.78c.72-1.57,1.5-3,2.29-4.42,1,.45,5.57,2.45,8,2.45s5.22-.64,6.69-2.58a4.07,4.07,0,0,0-.95-6c-2.95-1.79-8.63.73-10.95,2.74-.13.11-1.29,1.37-2.13,2.29.37-.62.73-1.28,1.09-1.87,1.36-2.22,2.73-4.18,4-5.9.7-1,1.36-1.84,2-2.65,1.21-.07,6.07-.41,8.16-1.49s4.34-3,4.75-5.38a4.08,4.08,0,0,0-3.61-4.88c-3.43-.23-7.31,4.63-8.45,7.49-.1.24-1.19,4.28-1.13,4.28h.07c-.61.76-1.27,1.58-2,2.5-1.28,1.69-2.7,3.62-4.1,5.83a69.14,69.14,0,0,0-4.2,7.33,52.44,52.44,0,0,0-3.49,8.79l0,.11c0-1-.18-3.83-.22-4-.51-3-3.3-8.59-6.71-9.08a4.08,4.08,0,0,0-4.54,4C109.47,363.53,111.32,365.88,113.1,367.34Z" style="fill:#fff"></path><path d="M120.38,351.28c1.55,2.2,6.8,5.21,6.8,5.22s.94-4.06,1-4.33c.31-3.06-.91-9.15-4.07-10.53a4.09,4.09,0,0,0-5.45,2.68C117.88,346.64,119.05,349.4,120.38,351.28Z" style="fill:#fff;opacity:0.30000000000000004"></path><path d="M172,384.08c0,.05,3-2.87,3.19-3.08,1.94-2.39,4.28-8.14,2.41-11a4.08,4.08,0,0,0-6-.77c-1.9,1.53-2.45,4.47-2.38,6.77C169.31,378.66,172,384.07,172,384.08Z" style="fill:#fff;opacity:0.30000000000000004"></path><path d="M113.1,367.34c2,1.65,7.42,3.1,7.86,3.22a71,71,0,0,0-1.89,9.44c-.26,1.86-.46,3.73-.63,5.62,0-.88-.1-1.66-.12-1.76-.51-3-3.3-8.59-6.71-9.08a4.08,4.08,0,0,0-4.54,4c-.1,2.43,1.75,4.78,3.52,6.24s6.41,2.82,7.63,3.16c-.06.72-.13,1.44-.18,2.16-.28,3.47-.54,6.94-.89,10.33-.13,1.2-.3,2.37-.46,3.54,0-.77-.09-1.42-.1-1.52-.52-3-3.3-8.59-6.71-9.08a4.08,4.08,0,0,0-4.55,4c-.1,2.43,1.76,4.78,3.53,6.24s6,2.69,7.4,3.09c-.2,1.2-.4,2.4-.65,3.55-.19.78-.32,1.55-.55,2.32s-.43,1.54-.64,2.29c-.46,1.45-.93,2.94-1.41,4.33-.33,1-.66,1.9-1,2.83.14-1.19.36-3.52.35-3.72-.05-3.08-2-9-5.25-10a4.07,4.07,0,0,0-5.1,3.29c-.47,2.38,1,5,2.54,6.7,1.68,1.89,6.62,4.08,7.23,4.35-.55,1.54-1.1,3-1.65,4.42-1.13,2.92-2.21,5.51-3.17,7.72l1.93,1.16c.95-2.31,2-5.06,3.15-8.16.57-1.56,1.15-3.23,1.72-5a44.25,44.25,0,0,0,5.18.55c.52,2.54,3.23,6.79,3.58,7.34-1.31,1-2.59,1.91-3.81,2.77-2.4,1.71-4.6,3.19-6.54,4.45l2.08,1.26c1.71-1.19,3.61-2.54,5.65-4.05,1.34-1,2.74-2.07,4.18-3.19.48.45,4.46,4.12,6.86,4.92,2.18.73,5.16,1,7.17-.33a4.08,4.08,0,0,0,1-6c-2.23-2.63-8.41-2-11.26-.87-.17.07-1.9,1-3,1.65.59-.47,1.16-.91,1.75-1.39,1.18-.94,2.33-1.92,3.58-3l1.76-1.6c.6-.52,1.17-1.15,1.76-1.72,1.34-1.37,2.64-2.82,3.92-4.31.83,1,3.83,4.66,5.88,5.71s4.94,1.82,7.13.76a4.07,4.07,0,0,0,1.89-5.76c-1.8-2.94-8-3.29-11-2.56-.19,0-2.28.81-3.41,1.25.75-.9,1.52-1.8,2.25-2.74,2.14-2.7,4.21-5.5,6.29-8.29l1.92-2.54c.29.37,3.77,4.75,6.07,5.93,2,1.05,4.94,1.82,7.13.76a4.07,4.07,0,0,0,1.89-5.76c-1.8-2.94-8-3.29-11-2.56-.22.05-3.22,1.16-4,1.47,1.41-1.86,2.84-3.7,4.32-5.46a71.28,71.28,0,0,1,6.41-6.76c.14.17,3.74,4.76,6.1,6,2,1.05,4.94,1.82,7.13.76a4.07,4.07,0,0,0,1.89-5.76c-1.8-2.94-8-3.29-11-2.56-.19.05-2.48.88-3.56,1.31a1,1,0,0,0-.1-.17,52.47,52.47,0,0,1,7.56-5.52c1.47-.91,2.92-1.69,4.35-2.42.58.92,3.3,5.12,5.3,6.44s4.71,2.35,7,1.54a4.08,4.08,0,0,0,2.51-5.53C185.15,384,179,383,176,383.4c-.16,0-1.83.43-3,.74.65-.32,1.31-.66,1.94-1,2.36-1.11,4.58-2,6.56-2.74,1.13-.42,2.16-.78,3.12-1.1,1.05.61,5.3,3,7.64,3.25s5.26-.09,6.92-1.86a4.07,4.07,0,0,0-.32-6.06c-2.74-2.09-8.65-.18-11.17,1.58-.22.15-3.36,2.92-3.31,2.95l.07,0c-.94.3-1.94.63-3,1-2,.72-4.25,1.54-6.63,2.61a71.2,71.2,0,0,0-7.55,3.8,53.25,53.25,0,0,0-7.76,5.4.6.6,0,0,0-.08.08c.54-.86,2-3.29,2-3.49,1.24-2.82,2-9-.59-11.28a4.08,4.08,0,0,0-6,.85c-1.43,2-1.18,5-.5,7.15.76,2.48,4.48,6.69,4.78,7a70.78,70.78,0,0,0-6.79,6.84c-1.23,1.4-2.43,2.86-3.62,4.33.44-.75.83-1.43.88-1.53,1.24-2.82,2-9-.59-11.27a4.08,4.08,0,0,0-6,.84c-1.43,2-1.18,5-.5,7.16s3.78,5.88,4.62,6.83c-.45.57-.91,1.14-1.35,1.71-2.15,2.74-4.27,5.49-6.44,8.12-.77.93-1.55,1.81-2.34,2.7.4-.67.72-1.23.76-1.32,1.24-2.82,2-9-.59-11.28a4.08,4.08,0,0,0-6,.85c-1.42,2-1.17,5-.5,7.15s3.49,5.52,4.47,6.66c-.83.89-1.66,1.78-2.5,2.6-.59.55-1.12,1.12-1.74,1.63L129,426c-1.18.95-2.39,1.94-3.56,2.84-.82.63-1.6,1.21-2.39,1.8.77-.91,2.24-2.73,2.35-2.9a15.76,15.76,0,0,0,2.17-7.69,5.52,5.52,0,0,0,.42-.8,4.08,4.08,0,0,0-2.48-5.54c-3.3-1-8.14,2.94-9.86,5.49-.1.15-1,1.9-1.59,3,.23-.71.47-1.39.7-2.12.46-1.44.88-2.89,1.34-4.45.19-.76.39-1.53.59-2.31s.34-1.6.51-2.4c.37-1.89.65-3.81.9-5.76,1.26.41,5.76,1.77,8.06,1.52s5.12-1.21,6.36-3.3a4.07,4.07,0,0,0-1.6-5.85c-3.13-1.46-8.5,1.67-10.59,3.93-.13.14-1.45,1.93-2.15,2.92.13-1.17.28-2.33.38-3.52.28-3.43.46-6.91.66-10.38.06-1.07.14-2.13.2-3.19.45.15,5.77,1.89,8.34,1.61,2.28-.26,5.12-1.21,6.36-3.3a4.07,4.07,0,0,0-1.6-5.85c-3.13-1.46-8.49,1.67-10.58,3.93-.16.17-2.06,2.74-2.5,3.42.15-2.34.32-4.66.58-6.95a72.17,72.17,0,0,1,1.62-9.17c.21.07,5.75,1.91,8.38,1.62,2.29-.25,5.13-1.21,6.37-3.3a4.08,4.08,0,0,0-1.61-5.85c-3.12-1.45-8.49,1.67-10.58,3.93-.13.15-1.58,2.11-2.25,3.06l-.17-.08a52,52,0,0,1,3.26-8.78c.72-1.57,1.5-3,2.29-4.42,1,.45,5.57,2.45,8,2.45s5.22-.64,6.69-2.58a4.07,4.07,0,0,0-.95-6c-2.95-1.79-8.63.73-10.95,2.74-.13.11-1.29,1.37-2.13,2.29.37-.62.73-1.28,1.09-1.87,1.36-2.22,2.73-4.18,4-5.9.7-1,1.36-1.84,2-2.65,1.21-.07,6.07-.41,8.16-1.49s4.34-3,4.75-5.38a4.08,4.08,0,0,0-3.61-4.88c-3.43-.23-7.31,4.63-8.45,7.49-.1.24-1.19,4.28-1.13,4.28h.07c-.61.76-1.27,1.58-2,2.5-1.28,1.69-2.7,3.62-4.1,5.83a69.14,69.14,0,0,0-4.2,7.33,52.44,52.44,0,0,0-3.49,8.79l0,.11c0-1-.18-3.83-.22-4-.51-3-3.3-8.59-6.71-9.08a4.08,4.08,0,0,0-4.54,4C109.47,363.53,111.32,365.88,113.1,367.34Z" style="fill:#fff;opacity:0.30000000000000004"></path></g><g id="freepik--Sign--inject-187"><rect x="163.39" y="34.82" width="175.7" height="197.97" style="fill:#fff;stroke:#263238;stroke-miterlimit:10"></rect><polygon points="339.09 111 163.39 150 163.39 34.82 339.09 34.82 339.09 111" style="fill:#92E3A9;stroke:#263238;stroke-miterlimit:10"></polygon></g><g id="freepik--Stars--inject-187"><polygon points="307.08 188.77 309.66 194 315.44 194.84 311.26 198.91 312.24 204.66 307.08 201.94 301.92 204.66 302.91 198.91 298.73 194.84 304.5 194 307.08 188.77" style="fill:#92E3A9;stroke:#263238;stroke-miterlimit:10"></polygon><polygon points="198.18 188.77 200.76 194 206.53 194.84 202.35 198.91 203.34 204.66 198.18 201.94 193.01 204.66 194 198.91 189.82 194.84 195.59 194 198.18 188.77" style="fill:#92E3A9;stroke:#263238;stroke-miterlimit:10"></polygon></g><g id="freepik--light-bulb--inject-187"><path d="M272.36,125.49a20.38,20.38,0,1,0-36,13A20,20,0,0,1,241,151.35v2.8h22v-2.8a20,20,0,0,1,4.64-12.81A20.28,20.28,0,0,0,272.36,125.49Z" style="fill:#fff;stroke:#263238;stroke-linecap:round;stroke-linejoin:round;stroke-width:3px"></path><rect x="240.96" y="154.15" width="22.03" height="5.45" style="fill:#fff;stroke:#263238;stroke-linecap:round;stroke-linejoin:round;stroke-width:3px"></rect><path d="M241,159.62h22a0,0,0,0,1,0,0v.73a4.73,4.73,0,0,1-4.73,4.73H245.69a4.73,4.73,0,0,1-4.73-4.73v-.73A0,0,0,0,1,241,159.62Z" style="fill:#fff;stroke:#263238;stroke-linecap:round;stroke-linejoin:round;stroke-width:3px"></path><path d="M254.76,170.51h-5.57a5.45,5.45,0,0,1-5.45-5.45h16.47A5.45,5.45,0,0,1,254.76,170.51Z" style="fill:#fff;stroke:#263238;stroke-linecap:round;stroke-linejoin:round;stroke-width:3px"></path><line x1="275.25" y1="125.6" x2="284.59" y2="125.6" style="fill:none;stroke:#263238;stroke-linecap:round;stroke-linejoin:round;stroke-width:3px"></line><line x1="218.49" y1="125.6" x2="227.95" y2="125.6" style="fill:none;stroke:#263238;stroke-linecap:round;stroke-linejoin:round;stroke-width:3px"></line><line x1="251.54" y1="101.91" x2="251.54" y2="92.55" style="fill:none;stroke:#263238;stroke-linecap:round;stroke-linejoin:round;stroke-width:3px"></line><line x1="268.46" y1="108.67" x2="274.91" y2="102.23" style="fill:none;stroke:#263238;stroke-linecap:round;stroke-linejoin:round;stroke-width:3px"></line><line x1="228.17" y1="148.97" x2="234.71" y2="142.43" style="fill:none;stroke:#263238;stroke-linecap:round;stroke-linejoin:round;stroke-width:3px"></line><line x1="234.43" y1="108.49" x2="228.17" y2="102.23" style="fill:none;stroke:#263238;stroke-linecap:round;stroke-linejoin:round;stroke-width:3px"></line><line x1="274.91" y1="148.97" x2="268.68" y2="142.73" style="fill:none;stroke:#263238;stroke-linecap:round;stroke-linejoin:round;stroke-width:3px"></line></g><g id="freepik--Texts--inject-187"><path d="M185.39,87.33h-6.33V47h6.33V64.31h7.2V47H199V87.33h-6.44V70.06h-7.2Z" style="fill:#263238"></path><path d="M210,64h8.69v5.75H210v11.8H220.9v5.76H203.64V47H220.9V52.8H210Z" style="fill:#263238"></path><path d="M224.81,47h6.34V81.57h10.41v5.76H224.81Z" style="fill:#263238"></path><path d="M263.08,57v5.24c0,6.44-3.1,9.95-9.43,9.95h-3V87.33h-6.33V47h9.33C260,47,263.08,50.55,263.08,57Zm-12.43-4.2V66.44h3c2,0,3.1-.92,3.1-3.8v-6c0-2.88-1.09-3.8-3.1-3.8Z" style="fill:#263238"></path><path d="M272.35,64.94h8.17v5.75h-8.17V87.33H266V47h16.75V52.8H272.35Z" style="fill:#263238"></path><path d="M291.86,47V78.12c0,2.88,1.26,3.91,3.28,3.91s3.28-1,3.28-3.91V47h6V77.72c0,6.44-3.22,10.12-9.43,10.12s-9.44-3.68-9.44-10.12V47Z" style="fill:#263238"></path><path d="M308.72,47h6.33V81.57h10.42v5.76H308.72Z" style="fill:#263238"></path><path d="M218.63,217.78V181.59H211.2V177.5h19.28v4.09h-7.42v36.19Z" style="fill:#263238"></path><path d="M238,177.5v40.28h-4.49V177.5Z" style="fill:#263238"></path><path d="M251.43,177.5c6.33,0,9,3.74,9,9.84v4.84c0,6.38-3,9.72-9.38,9.72h-4v15.88h-4.48V177.5Zm-.34,20.37c3.33,0,4.94-1.55,4.94-5.41v-5.35c0-3.68-1.32-5.52-4.6-5.52h-4.32v16.28Z" style="fill:#263238"></path><path d="M281.41,187.17v1.09h-4.26v-1.32c0-3.63-1.38-5.76-4.6-5.76s-4.6,2.13-4.6,5.7c0,9,13.52,9.9,13.52,21.24,0,6.1-2.94,10.07-9.09,10.07s-9-4-9-10.07v-2.31h4.2v2.54c0,3.62,1.5,5.75,4.72,5.75S277,212,277,208.35c0-9-13.46-9.84-13.46-21.18,0-6.22,2.87-10.07,8.92-10.07S281.41,181.07,281.41,187.17Z" style="fill:#263238"></path><path d="M285.38,196.43V177.5h4.49v18.93l-.57,12.43H286Zm4.38,15.77v5.58h-4.32V212.2Z" style="fill:#263238"></path></g><g id="freepik--Graphics--inject-187"><line x1="55" y1="259" x2="68" y2="272" style="fill:none;stroke:#263238;stroke-miterlimit:10"></line><line x1="68" y1="259" x2="55" y2="272" style="fill:none;stroke:#263238;stroke-miterlimit:10"></line><line x1="369" y1="337" x2="382" y2="350" style="fill:none;stroke:#263238;stroke-miterlimit:10"></line><line x1="382" y1="337" x2="369" y2="350" style="fill:none;stroke:#263238;stroke-miterlimit:10"></line><line x1="112" y1="424" x2="125" y2="437" style="fill:none;stroke:#263238;stroke-miterlimit:10"></line><line x1="125" y1="424" x2="112" y2="437" style="fill:none;stroke:#263238;stroke-miterlimit:10"></line><line x1="77" y1="79" x2="90" y2="92" style="fill:none;stroke:#263238;stroke-miterlimit:10"></line><line x1="90" y1="79" x2="77" y2="92" style="fill:none;stroke:#263238;stroke-miterlimit:10"></line><line x1="439" y1="196" x2="452" y2="209" style="fill:none;stroke:#263238;stroke-miterlimit:10"></line><line x1="452" y1="196" x2="439" y2="209" style="fill:none;stroke:#263238;stroke-miterlimit:10"></line><line x1="392" y1="130" x2="405" y2="143" style="fill:none;stroke:#263238;stroke-miterlimit:10"></line><line x1="405" y1="130" x2="392" y2="143" style="fill:none;stroke:#263238;stroke-miterlimit:10"></line><circle cx="98" cy="313" r="5" style="fill:none;stroke:#263238;stroke-miterlimit:10"></circle><circle cx="126" cy="165" r="5" style="fill:none;stroke:#263238;stroke-miterlimit:10"></circle><circle cx="59" cy="155" r="5" style="fill:none;stroke:#263238;stroke-miterlimit:10"></circle><circle cx="419" cy="73" r="5" style="fill:none;stroke:#263238;stroke-miterlimit:10"></circle><circle cx="384" cy="257" r="5" style="fill:none;stroke:#263238;stroke-miterlimit:10"></circle><circle cx="326" cy="402" r="5" style="fill:none;stroke:#263238;stroke-miterlimit:10"></circle></g><g id="freepik--Character--inject-187"><path d="M153.28,206.6s9.06-12.49,11.76-13,11.75,6.86,12.73,7.84-1,1.72-2,1.72-9.55-2.94-9.55-2.94l-3.18,4.16Z" style="fill:#fff;stroke:#263238;stroke-miterlimit:10"></path><path d="M154,238l-2.21-28.17s-.24-3.92,2.7-5.15,18.37-3.91,19.59-4.16,8.82,10,8.82,10l.49,4.9,2.45,6.86a9.21,9.21,0,0,1-4.41-.25c-2.21-.73-7.1-2.69-7.1-2.69h-4.66s.74,9.31.74,12.25-6.62,9.06-6.62,9.06l-.49,3.18-10-3.67Z" style="fill:#fff;stroke:#263238;stroke-miterlimit:10"></path><path d="M165,213.22h12c1,0,7.84,7.1,7.84,7.1" style="fill:none;stroke:#263238;stroke-miterlimit:10"></path><path d="M162.1,207.58s12.74-2.2,14-1.71,7.35,9.55,7.35,9.55" style="fill:none;stroke:#263238;stroke-miterlimit:10"></path><polygon points="150.83 244.81 153.04 235.51 165.53 240.4 164.06 252.65 150.83 244.81" style="fill:#fff;stroke:#263238;stroke-miterlimit:10"></polygon><path d="M348.73,206.6s-9.06-12.49-11.76-13-11.76,6.86-12.74,7.84,1,1.72,2,1.72,9.56-2.94,9.56-2.94l3.18,4.16Z" style="fill:#fff;stroke:#263238;stroke-miterlimit:10"></path><path d="M348,238l2.21-28.17s.24-3.92-2.7-5.15-18.37-3.91-19.59-4.16-8.82,10-8.82,10l-.49,4.9-2.45,6.86a9.21,9.21,0,0,0,4.41-.25c2.2-.73,7.1-2.69,7.1-2.69h4.66s-.74,9.31-.74,12.25,6.62,9.06,6.62,9.06l.49,3.18,10-3.67Z" style="fill:#fff;stroke:#263238;stroke-miterlimit:10"></path><path d="M337,213.22H325c-1,0-7.84,7.1-7.84,7.1" style="fill:none;stroke:#263238;stroke-miterlimit:10"></path><path d="M339.91,207.58s-12.74-2.2-14-1.71-7.35,9.55-7.35,9.55" style="fill:none;stroke:#263238;stroke-miterlimit:10"></path><polygon points="351.18 244.81 348.97 235.51 336.48 240.4 337.95 252.65 351.18 244.81" style="fill:#fff;stroke:#263238;stroke-miterlimit:10"></polygon><path d="M351.57,244l-14.24,6.45a4.6,4.6,0,0,0-2.7,4.22L335,295s-27.46,28.29-29.38,29.66-14-2.19-17.86,1.93S277.33,334,277.33,334l-4.4-1.37L231.46,331l-7.14,3.29L213.89,337s-9.34-7.69-11.26-8.24-11-3-11-3L165,301.29s2.2-48.06-.27-50.26-14.83-8.79-16.21-6.86-14,69.48-12.63,73.87,53.83,50,53.83,50l5.47,92.59c31.44,9,64.52,8.66,99.32,1.47l4.79-91.31s36.8-36.25,47.78-47.51,17.58-20.32,18.41-22c.72-1.45-9.07-45.67-11.39-56.08A1.82,1.82,0,0,0,351.57,244Z" style="fill:#fff;stroke:#263238;stroke-miterlimit:10"></path><polyline points="190.29 341.66 189.72 368.02 183.4 334.25" style="fill:none;stroke:#263238;stroke-miterlimit:10"></polyline><line x1="190.54" y1="330.13" x2="190.37" y2="338.27" style="fill:none;stroke:#263238;stroke-miterlimit:10"></line><polyline points="302.27 346.23 299.3 370.77 306.16 342.76" style="fill:none;stroke:#263238;stroke-miterlimit:10"></polyline><line x1="303.42" y1="336.72" x2="302.76" y2="342.18" style="fill:none;stroke:#263238;stroke-miterlimit:10"></line><path d="M217.7,359.9a55.82,55.82,0,0,0,2.23,7.85" style="fill:none;stroke:#263238;stroke-miterlimit:10"></path><path d="M215.54,339.74a111.83,111.83,0,0,0,1.53,16.89" style="fill:none;stroke:#263238;stroke-miterlimit:10"></path><path d="M274.77,363.91c-.21,2-.45,3.88-.74,5.49" style="fill:none;stroke:#263238;stroke-miterlimit:10"></path><path d="M276,336.17s0,13.58-.9,24.66" style="fill:none;stroke:#263238;stroke-miterlimit:10"></path><path d="M273.21,344.13s-5.77,20.05-10.16,29.39" style="fill:none;stroke:#263238;stroke-miterlimit:10"></path><polygon points="234.21 352.92 241.9 368.57 235.58 443.27 246.29 463.6 257.28 442.18 248.49 368.57 258.93 350.72 246.02 339.19 234.21 352.92" style="fill:#263238;stroke:#263238;stroke-miterlimit:10"></polygon><polygon points="229.82 328.48 221.58 333.42 226.52 365.83 241.35 351 242.72 356.22 248.77 358.96 253.16 354.84 253.71 351.27 264.69 363.36 272.93 332.6 263.05 327.65 229.82 328.48" style="fill:#fff;stroke:#263238;stroke-miterlimit:10"></polygon><polygon points="232.01 315.3 229.82 328.48 242.45 347.15 248.22 357.86 251.51 348.53 263.05 327.65 261.12 316.67 232.01 315.3" style="fill:#fff;stroke:#263238;stroke-miterlimit:10"></polygon><path d="M262.38,323.87l-.82-4.72-6.3-2.76-21-1-2.42.7-1,5.86c3.46,5,11.66,16.32,15.12,17.23C249.31,340.05,258.07,329.43,262.38,323.87Z" style="fill:#263238"></path><path d="M223.69,298.25s-3.82-5.88-5,1.47,7.65,11.76,7.65,11.76a90.38,90.38,0,0,0,5.29,10c2.06,2.94,10.29,7.65,17.65,7.06s14.7-5.88,15.58-7.94,4.71-10,4.71-10,5.88-6.47,5.88-11.47-5.3-4.11-5.3-4.11l.3-20s6.17-3.53,2.94-6.76-10.29-4.71-10.29-4.71,8.23-3.23,6.47-8.23-10-7.35-20.59-4.12-13.82,10-13.82,10-1.47-4.7-5.59-2.35-10.29,13.82-9.4,16.76a15.9,15.9,0,0,0,3.52,5.59Z" style="fill:#fff;stroke:#263238;stroke-miterlimit:10"></path><polyline points="252.51 285.31 252.22 296.78 245.75 296.78" style="fill:none;stroke:#263238;stroke-miterlimit:10"></polyline><path d="M236,301.19s3.53,5.59,8.24,5.59,7.64.59,10.88-.88a9.07,9.07,0,0,0,4.41-4.42" style="fill:none;stroke:#263238;stroke-miterlimit:10"></path><line x1="234.57" y1="295.02" x2="239.87" y2="295.02" style="fill:none;stroke:#263238;stroke-miterlimit:10"></line><line x1="255.74" y1="294.43" x2="262.8" y2="294.43" style="fill:none;stroke:#263238;stroke-miterlimit:10"></line><ellipse cx="238.98" cy="289.72" rx="1.76" ry="2.35" style="fill:#263238"></ellipse><ellipse cx="258.1" cy="289.72" rx="1.76" ry="2.35" style="fill:#263238"></ellipse><path d="M270.15,295l.3-20s6.17-3.53,2.94-6.76-10.29-4.71-10.29-4.71,8.23-3.23,6.47-8.23-10-7.35-20.59-4.12-13.82,10-13.82,10-1.47-4.7-5.59-2.35-10.29,13.82-9.4,16.76a15.9,15.9,0,0,0,3.52,5.59v17.05h1.73s-.55-12.34.55-14.26,5.49-4.67,5.77-7.69,12.91-9.89,20.6-8.79,9.33,6.32,12.35,8,2.2,1.65,2.2,1.65v18.95l4.4-1.1h0A6.48,6.48,0,0,0,270.15,295Z" style="fill:#263238"></path><path d="M233.66,282.89s3-4.67,9.06-1.65" style="fill:none;stroke:#263238;stroke-miterlimit:10"></path><path d="M252.61,280.14s4.67-4.94,10.44.83" style="fill:none;stroke:#263238;stroke-miterlimit:10"></path><line x1="269.36" y1="298.27" x2="269.09" y2="311.72" style="fill:none;stroke:#263238;stroke-miterlimit:10"></line><line x1="224.6" y1="301.29" x2="226.34" y2="311.48" style="fill:none;stroke:#263238;stroke-miterlimit:10"></line></g></svg>